<?xml version="1.0" encoding="UTF-8" standalone="no"?>
<!DOCTYPE svg PUBLIC "-//W3C//DTD SVG 1.1//EN"
 "http://www.w3.org/Graphics/SVG/1.1/DTD/svg11.dtd">
<!-- Generated by graphviz version 5.0.0 (20220707.1540)
 -->
<!-- Title: dependencies Pages: 1 -->
<svg width="3128pt" height="370pt"
 viewBox="0.00 0.00 3128.00 370.00" xmlns="http://www.w3.org/2000/svg" xmlns:xlink="http://www.w3.org/1999/xlink">
<g id="graph0" class="graph" transform="scale(1 1) rotate(0) translate(4 366)">
<title>dependencies</title>
<polygon fill="white" stroke="transparent" points="-4,4 -4,-366 3124,-366 3124,4 -4,4"/>
<text text-anchor="middle" x="1560" y="-8.2" font-family="sans-serif" font-size="14.00">dependencies</text>
<g id="clust1" class="cluster">
<title>cluster_CoreModule</title>
<polygon fill="none" stroke="black" stroke-dasharray="1,5" points="8,-32.8 8,-354 3112,-354 3112,-32.8 8,-32.8"/>
</g>
<g id="clust4" class="cluster">
<title>cluster_CoreModule_imports</title>
<polygon fill="none" stroke="black" points="112,-40.8 112,-216 3104,-216 3104,-40.8 112,-40.8"/>
</g>
<g id="clust6" class="cluster">
<title>cluster_CoreModule_bootstrap</title>
<polygon fill="none" stroke="black" points="1725,-294 1725,-346 1817,-346 1817,-294 1725,-294"/>
</g>
<g id="clust2" class="cluster">
<title>cluster_CoreModule_declarations</title>
<polygon fill="none" stroke="black" points="16,-102.4 16,-154.4 104,-154.4 104,-102.4 16,-102.4"/>
</g>
<!-- CoreShell -->
<g id="node1" class="node">
<title>CoreShell</title>
<polygon fill="#ffffb3" stroke="black" points="95.99,-146.4 24.01,-146.4 24.01,-110.4 95.99,-110.4 95.99,-146.4"/>
<text text-anchor="middle" x="60" y="-124.2" font-family="Times,serif" font-size="14.00">CoreShell</text>
</g>
<!-- CoreModule -->
<g id="node2" class="node">
<title>CoreModule</title>
<polygon fill="#8dd3c7" stroke="black" points="1814.27,-273 1811.27,-277 1790.27,-277 1787.27,-273 1727.73,-273 1727.73,-237 1814.27,-237 1814.27,-273"/>
<text text-anchor="middle" x="1771" y="-250.8" font-family="Times,serif" font-size="14.00">CoreModule</text>
</g>
<!-- CoreShell&#45;&gt;CoreModule -->
<g id="edge1" class="edge">
<title>CoreShell&#45;&gt;CoreModule</title>
<path fill="none" stroke="black" d="M60,-146.52C60,-184.09 60,-267 60,-267 60,-267 1717.42,-267 1717.42,-267"/>
<polygon fill="black" stroke="black" points="1717.42,-270.5 1727.42,-267 1717.42,-263.5 1717.42,-270.5"/>
</g>
<!-- CoreShell  -->
<g id="node15" class="node">
<title>CoreShell </title>
<polygon fill="#80b1d3" stroke="black" points="1808.99,-338 1733.01,-338 1733.01,-302 1808.99,-302 1808.99,-338"/>
<text text-anchor="middle" x="1771" y="-315.8" font-family="Times,serif" font-size="14.00">CoreShell </text>
</g>
<!-- CoreModule&#45;&gt;CoreShell  -->
<g id="edge14" class="edge">
<title>CoreModule&#45;&gt;CoreShell </title>
<path fill="none" stroke="black" stroke-dasharray="1,5" d="M1771,-273.11C1771,-273.11 1771,-291.99 1771,-291.99"/>
<polygon fill="black" stroke="black" points="1767.5,-291.99 1771,-301.99 1774.5,-291.99 1767.5,-291.99"/>
</g>
<!-- AuthModule -->
<g id="node3" class="node">
<title>AuthModule</title>
<polygon fill="#8dd3c7" stroke="black" points="3095.55,-146.4 3092.55,-150.4 3071.55,-150.4 3068.55,-146.4 3008.45,-146.4 3008.45,-110.4 3095.55,-110.4 3095.55,-146.4"/>
<text text-anchor="middle" x="3052" y="-124.2" font-family="Times,serif" font-size="14.00">AuthModule</text>
</g>
<!-- AuthModule&#45;&gt;CoreModule -->
<g id="edge2" class="edge">
<title>AuthModule&#45;&gt;CoreModule</title>
<path fill="none" stroke="black" d="M3052,-146.67C3052,-184.1 3052,-266 3052,-266 3052,-266 1824.36,-266 1824.36,-266"/>
<polygon fill="black" stroke="black" points="1824.36,-262.5 1814.36,-266 1824.36,-269.5 1824.36,-262.5"/>
</g>
<!-- CoreRouting -->
<g id="node4" class="node">
<title>CoreRouting</title>
<polygon fill="#8dd3c7" stroke="black" points="2990.33,-146.4 2987.33,-150.4 2966.33,-150.4 2963.33,-146.4 2901.67,-146.4 2901.67,-110.4 2990.33,-110.4 2990.33,-146.4"/>
<text text-anchor="middle" x="2946" y="-124.2" font-family="Times,serif" font-size="14.00">CoreRouting</text>
</g>
<!-- CoreRouting&#45;&gt;CoreModule -->
<g id="edge3" class="edge">
<title>CoreRouting&#45;&gt;CoreModule</title>
<path fill="none" stroke="black" d="M2946,-146.56C2946,-182.44 2946,-259 2946,-259 2946,-259 1824.56,-259 1824.56,-259"/>
<polygon fill="black" stroke="black" points="1824.56,-255.5 1814.56,-259 1824.56,-262.5 1824.56,-255.5"/>
</g>
<!-- ErrorsModule -->
<g id="node5" class="node">
<title>ErrorsModule</title>
<polygon fill="#8dd3c7" stroke="black" points="2884.04,-146.4 2881.04,-150.4 2860.04,-150.4 2857.04,-146.4 2789.96,-146.4 2789.96,-110.4 2884.04,-110.4 2884.04,-146.4"/>
<text text-anchor="middle" x="2837" y="-124.2" font-family="Times,serif" font-size="14.00">ErrorsModule</text>
</g>
<!-- ErrorsModule&#45;&gt;CoreModule -->
<g id="edge4" class="edge">
<title>ErrorsModule&#45;&gt;CoreModule</title>
<path fill="none" stroke="black" d="M2837,-146.64C2837,-181.02 2837,-252 2837,-252 2837,-252 1824.44,-252 1824.44,-252"/>
<polygon fill="black" stroke="black" points="1824.44,-248.5 1814.44,-252 1824.44,-255.5 1824.44,-248.5"/>
</g>
<!-- provideAnalytics(() =&gt; getAnalytics()) -->
<g id="node6" class="node">
<title>provideAnalytics(() =&gt; getAnalytics())</title>
<polygon fill="#8dd3c7" stroke="black" points="2771.94,-146.4 2768.94,-150.4 2747.94,-150.4 2744.94,-146.4 2538.06,-146.4 2538.06,-110.4 2771.94,-110.4 2771.94,-146.4"/>
<text text-anchor="middle" x="2655" y="-124.2" font-family="Times,serif" font-size="14.00">provideAnalytics(() =&gt; getAnalytics())</text>
</g>
<!-- provideAnalytics(() =&gt; getAnalytics())&#45;&gt;CoreModule -->
<g id="edge5" class="edge">
<title>provideAnalytics(() =&gt; getAnalytics())&#45;&gt;CoreModule</title>
<path fill="none" stroke="black" d="M2655,-146.62C2655,-179.41 2655,-245 2655,-245 2655,-245 1824.54,-245 1824.54,-245"/>
<polygon fill="black" stroke="black" points="1824.54,-241.5 1814.54,-245 1824.54,-248.5 1824.54,-241.5"/>
</g>
<!-- provideAuth(() =&gt; {
 &#160;&#160;&#160;const auth = getAuth();
 &#160;&#160;&#160;if (FIREBASE_USE_EMULATORS) {
 &#160;&#160;&#160;&#160;&#160;&#160;&#160;connectAuthEmulator(auth, , {
 &#160;&#160;&#160;&#160;&#160;&#160;&#160;&#160;&#160;&#160;&#160;disableWarnings: true,
 &#160;&#160;&#160;&#160;&#160;&#160;&#160;});
 &#160;&#160;&#160;}
 &#160;&#160;&#160;return auth;
}) -->
<g id="node7" class="node">
<title>provideAuth(() =&gt; {
 &#160;&#160;&#160;const auth = getAuth();
 &#160;&#160;&#160;if (FIREBASE_USE_EMULATORS) {
 &#160;&#160;&#160;&#160;&#160;&#160;&#160;connectAuthEmulator(auth, , {
 &#160;&#160;&#160;&#160;&#160;&#160;&#160;&#160;&#160;&#160;&#160;disableWarnings: true,
 &#160;&#160;&#160;&#160;&#160;&#160;&#160;});
 &#160;&#160;&#160;}
 &#160;&#160;&#160;return auth;
})</title>
<polygon fill="#8dd3c7" stroke="black" points="2519.73,-208.1 2516.73,-212.1 2495.73,-212.1 2492.73,-208.1 2266.27,-208.1 2266.27,-48.7 2519.73,-48.7 2519.73,-208.1"/>
<text text-anchor="middle" x="2393" y="-191.4" font-family="Times,serif" font-size="14.00">provideAuth(() =&gt; {</text>
<text text-anchor="middle" x="2393" y="-174.6" font-family="Times,serif" font-size="14.00"> &#160;&#160;&#160;const auth = getAuth();</text>
<text text-anchor="middle" x="2393" y="-157.8" font-family="Times,serif" font-size="14.00"> &#160;&#160;&#160;if (FIREBASE_USE_EMULATORS) {</text>
<text text-anchor="middle" x="2393" y="-141" font-family="Times,serif" font-size="14.00"> &#160;&#160;&#160;&#160;&#160;&#160;&#160;connectAuthEmulator(auth, , {</text>
<text text-anchor="middle" x="2393" y="-124.2" font-family="Times,serif" font-size="14.00"> &#160;&#160;&#160;&#160;&#160;&#160;&#160;&#160;&#160;&#160;&#160;disableWarnings: true,</text>
<text text-anchor="middle" x="2393" y="-107.4" font-family="Times,serif" font-size="14.00"> &#160;&#160;&#160;&#160;&#160;&#160;&#160;});</text>
<text text-anchor="middle" x="2393" y="-90.6" font-family="Times,serif" font-size="14.00"> &#160;&#160;&#160;}</text>
<text text-anchor="middle" x="2393" y="-73.8" font-family="Times,serif" font-size="14.00"> &#160;&#160;&#160;return auth;</text>
<text text-anchor="middle" x="2393" y="-57" font-family="Times,serif" font-size="14.00">})</text>
</g>
<!-- provideAuth(() =&gt; {
 &#160;&#160;&#160;const auth = getAuth();
 &#160;&#160;&#160;if (FIREBASE_USE_EMULATORS) {
 &#160;&#160;&#160;&#160;&#160;&#160;&#160;connectAuthEmulator(auth, , {
 &#160;&#160;&#160;&#160;&#160;&#160;&#160;&#160;&#160;&#160;&#160;disableWarnings: true,
 &#160;&#160;&#160;&#160;&#160;&#160;&#160;});
 &#160;&#160;&#160;}
 &#160;&#160;&#160;return auth;
})&#45;&gt;CoreModule -->
<g id="edge6" class="edge">
<title>provideAuth(() =&gt; {
 &#160;&#160;&#160;const auth = getAuth();
 &#160;&#160;&#160;if (FIREBASE_USE_EMULATORS) {
 &#160;&#160;&#160;&#160;&#160;&#160;&#160;connectAuthEmulator(auth, , {
 &#160;&#160;&#160;&#160;&#160;&#160;&#160;&#160;&#160;&#160;&#160;disableWarnings: true,
 &#160;&#160;&#160;&#160;&#160;&#160;&#160;});
 &#160;&#160;&#160;}
 &#160;&#160;&#160;return auth;
})&#45;&gt;CoreModule</title>
<path fill="none" stroke="black" d="M2266.25,-200C2091.26,-200 1797.03,-200 1797.03,-200 1797.03,-200 1797.03,-226.99 1797.03,-226.99"/>
<polygon fill="black" stroke="black" points="1793.53,-226.99 1797.03,-236.99 1800.53,-226.99 1793.53,-226.99"/>
</g>
<!-- provideDatabase(() =&gt; {
 &#160;&#160;&#160;const database = getDatabase();
 &#160;&#160;&#160;if (FIREBASE_USE_EMULATORS) {
 &#160;&#160;&#160;&#160;&#160;&#160;&#160;connectDatabaseEmulator(database, , );
 &#160;&#160;&#160;}
 &#160;&#160;&#160;return database;
}) -->
<g id="node8" class="node">
<title>provideDatabase(() =&gt; {
 &#160;&#160;&#160;const database = getDatabase();
 &#160;&#160;&#160;if (FIREBASE_USE_EMULATORS) {
 &#160;&#160;&#160;&#160;&#160;&#160;&#160;connectDatabaseEmulator(database, , );
 &#160;&#160;&#160;}
 &#160;&#160;&#160;return database;
})</title>
<polygon fill="#8dd3c7" stroke="black" points="2248.34,-191 2245.34,-195 2224.34,-195 2221.34,-191 1981.66,-191 1981.66,-65.8 2248.34,-65.8 2248.34,-191"/>
<text text-anchor="middle" x="2115" y="-174.6" font-family="Times,serif" font-size="14.00">provideDatabase(() =&gt; {</text>
<text text-anchor="middle" x="2115" y="-157.8" font-family="Times,serif" font-size="14.00"> &#160;&#160;&#160;const database = getDatabase();</text>
<text text-anchor="middle" x="2115" y="-141" font-family="Times,serif" font-size="14.00"> &#160;&#160;&#160;if (FIREBASE_USE_EMULATORS) {</text>
<text text-anchor="middle" x="2115" y="-124.2" font-family="Times,serif" font-size="14.00"> &#160;&#160;&#160;&#160;&#160;&#160;&#160;connectDatabaseEmulator(database, , );</text>
<text text-anchor="middle" x="2115" y="-107.4" font-family="Times,serif" font-size="14.00"> &#160;&#160;&#160;}</text>
<text text-anchor="middle" x="2115" y="-90.6" font-family="Times,serif" font-size="14.00"> &#160;&#160;&#160;return database;</text>
<text text-anchor="middle" x="2115" y="-73.8" font-family="Times,serif" font-size="14.00">})</text>
</g>
<!-- provideDatabase(() =&gt; {
 &#160;&#160;&#160;const database = getDatabase();
 &#160;&#160;&#160;if (FIREBASE_USE_EMULATORS) {
 &#160;&#160;&#160;&#160;&#160;&#160;&#160;connectDatabaseEmulator(database, , );
 &#160;&#160;&#160;}
 &#160;&#160;&#160;return database;
})&#45;&gt;CoreModule -->
<g id="edge7" class="edge">
<title>provideDatabase(() =&gt; {
 &#160;&#160;&#160;const database = getDatabase();
 &#160;&#160;&#160;if (FIREBASE_USE_EMULATORS) {
 &#160;&#160;&#160;&#160;&#160;&#160;&#160;connectDatabaseEmulator(database, , );
 &#160;&#160;&#160;}
 &#160;&#160;&#160;return database;
})&#45;&gt;CoreModule</title>
<path fill="none" stroke="black" d="M1981.51,-187C1888,-187 1779.68,-187 1779.68,-187 1779.68,-187 1779.68,-226.78 1779.68,-226.78"/>
<polygon fill="black" stroke="black" points="1776.18,-226.78 1779.68,-236.78 1783.18,-226.78 1776.18,-226.78"/>
</g>
<!-- provideFirebaseApp(() =&gt; initializeApp(FIREBASE_OPTIONS)) -->
<g id="node9" class="node">
<title>provideFirebaseApp(() =&gt; initializeApp(FIREBASE_OPTIONS))</title>
<polygon fill="#8dd3c7" stroke="black" points="1964.4,-146.4 1961.4,-150.4 1940.4,-150.4 1937.4,-146.4 1577.6,-146.4 1577.6,-110.4 1964.4,-110.4 1964.4,-146.4"/>
<text text-anchor="middle" x="1771" y="-124.2" font-family="Times,serif" font-size="14.00">provideFirebaseApp(() =&gt; initializeApp(FIREBASE_OPTIONS))</text>
</g>
<!-- provideFirebaseApp(() =&gt; initializeApp(FIREBASE_OPTIONS))&#45;&gt;CoreModule -->
<g id="edge8" class="edge">
<title>provideFirebaseApp(() =&gt; initializeApp(FIREBASE_OPTIONS))&#45;&gt;CoreModule</title>
<path fill="none" stroke="black" d="M1762.32,-146.54C1762.32,-146.54 1762.32,-226.89 1762.32,-226.89"/>
<polygon fill="black" stroke="black" points="1758.82,-226.89 1762.32,-236.89 1765.82,-226.89 1758.82,-226.89"/>
</g>
<!-- provideFirestore(() =&gt; {
 &#160;&#160;&#160;const firestore = getFirestore();
 &#160;&#160;&#160;if (FIREBASE_USE_EMULATORS) {
 &#160;&#160;&#160;&#160;&#160;&#160;&#160;connectFirestoreEmulator(firestore, , );
 &#160;&#160;&#160;}
 &#160;&#160;&#160;enableMultiTabIndexedDbPersistence(firestore) -->
<g id="node10" class="node">
<title>provideFirestore(() =&gt; {
 &#160;&#160;&#160;const firestore = getFirestore();
 &#160;&#160;&#160;if (FIREBASE_USE_EMULATORS) {
 &#160;&#160;&#160;&#160;&#160;&#160;&#160;connectFirestoreEmulator(firestore, , );
 &#160;&#160;&#160;}
 &#160;&#160;&#160;enableMultiTabIndexedDbPersistence(firestore)</title>
<polygon fill="#8dd3c7" stroke="black" points="1560.06,-182.7 1557.06,-186.7 1536.06,-186.7 1533.06,-182.7 1259.94,-182.7 1259.94,-74.1 1560.06,-74.1 1560.06,-182.7"/>
<text text-anchor="middle" x="1410" y="-166.2" font-family="Times,serif" font-size="14.00">provideFirestore(() =&gt; {</text>
<text text-anchor="middle" x="1410" y="-149.4" font-family="Times,serif" font-size="14.00"> &#160;&#160;&#160;const firestore = getFirestore();</text>
<text text-anchor="middle" x="1410" y="-132.6" font-family="Times,serif" font-size="14.00"> &#160;&#160;&#160;if (FIREBASE_USE_EMULATORS) {</text>
<text text-anchor="middle" x="1410" y="-115.8" font-family="Times,serif" font-size="14.00"> &#160;&#160;&#160;&#160;&#160;&#160;&#160;connectFirestoreEmulator(firestore, , );</text>
<text text-anchor="middle" x="1410" y="-99" font-family="Times,serif" font-size="14.00"> &#160;&#160;&#160;}</text>
<text text-anchor="middle" x="1410" y="-82.2" font-family="Times,serif" font-size="14.00"> &#160;&#160;&#160;enableMultiTabIndexedDbPersistence(firestore)</text>
</g>
<!-- provideFirestore(() =&gt; {
 &#160;&#160;&#160;const firestore = getFirestore();
 &#160;&#160;&#160;if (FIREBASE_USE_EMULATORS) {
 &#160;&#160;&#160;&#160;&#160;&#160;&#160;connectFirestoreEmulator(firestore, , );
 &#160;&#160;&#160;}
 &#160;&#160;&#160;enableMultiTabIndexedDbPersistence(firestore)&#45;&gt;CoreModule -->
<g id="edge9" class="edge">
<title>provideFirestore(() =&gt; {
 &#160;&#160;&#160;const firestore = getFirestore();
 &#160;&#160;&#160;if (FIREBASE_USE_EMULATORS) {
 &#160;&#160;&#160;&#160;&#160;&#160;&#160;connectFirestoreEmulator(firestore, , );
 &#160;&#160;&#160;}
 &#160;&#160;&#160;enableMultiTabIndexedDbPersistence(firestore)&#45;&gt;CoreModule</title>
<path fill="none" stroke="black" d="M1560.34,-165C1649.39,-165 1744.97,-165 1744.97,-165 1744.97,-165 1744.97,-226.79 1744.97,-226.79"/>
<polygon fill="black" stroke="black" points="1741.47,-226.79 1744.97,-236.79 1748.47,-226.79 1741.47,-226.79"/>
</g>
<!-- provideFunctions(() =&gt; {
 &#160;&#160;&#160;const functions = getFunctions();
 &#160;&#160;&#160;if (FIREBASE_USE_EMULATORS) {
 &#160;&#160;&#160;&#160;&#160;&#160;&#160;connectFunctionsEmulator(functions, , );
 &#160;&#160;&#160;}
 &#160;&#160;&#160;return functions;
}) -->
<g id="node11" class="node">
<title>provideFunctions(() =&gt; {
 &#160;&#160;&#160;const functions = getFunctions();
 &#160;&#160;&#160;if (FIREBASE_USE_EMULATORS) {
 &#160;&#160;&#160;&#160;&#160;&#160;&#160;connectFunctionsEmulator(functions, , );
 &#160;&#160;&#160;}
 &#160;&#160;&#160;return functions;
})</title>
<polygon fill="#8dd3c7" stroke="black" points="1242.17,-191 1239.17,-195 1218.17,-195 1215.17,-191 967.83,-191 967.83,-65.8 1242.17,-65.8 1242.17,-191"/>
<text text-anchor="middle" x="1105" y="-174.6" font-family="Times,serif" font-size="14.00">provideFunctions(() =&gt; {</text>
<text text-anchor="middle" x="1105" y="-157.8" font-family="Times,serif" font-size="14.00"> &#160;&#160;&#160;const functions = getFunctions();</text>
<text text-anchor="middle" x="1105" y="-141" font-family="Times,serif" font-size="14.00"> &#160;&#160;&#160;if (FIREBASE_USE_EMULATORS) {</text>
<text text-anchor="middle" x="1105" y="-124.2" font-family="Times,serif" font-size="14.00"> &#160;&#160;&#160;&#160;&#160;&#160;&#160;connectFunctionsEmulator(functions, , );</text>
<text text-anchor="middle" x="1105" y="-107.4" font-family="Times,serif" font-size="14.00"> &#160;&#160;&#160;}</text>
<text text-anchor="middle" x="1105" y="-90.6" font-family="Times,serif" font-size="14.00"> &#160;&#160;&#160;return functions;</text>
<text text-anchor="middle" x="1105" y="-73.8" font-family="Times,serif" font-size="14.00">})</text>
</g>
<!-- provideFunctions(() =&gt; {
 &#160;&#160;&#160;const functions = getFunctions();
 &#160;&#160;&#160;if (FIREBASE_USE_EMULATORS) {
 &#160;&#160;&#160;&#160;&#160;&#160;&#160;connectFunctionsEmulator(functions, , );
 &#160;&#160;&#160;}
 &#160;&#160;&#160;return functions;
})&#45;&gt;CoreModule -->
<g id="edge10" class="edge">
<title>provideFunctions(() =&gt; {
 &#160;&#160;&#160;const functions = getFunctions();
 &#160;&#160;&#160;if (FIREBASE_USE_EMULATORS) {
 &#160;&#160;&#160;&#160;&#160;&#160;&#160;connectFunctionsEmulator(functions, , );
 &#160;&#160;&#160;}
 &#160;&#160;&#160;return functions;
})&#45;&gt;CoreModule</title>
<path fill="none" stroke="black" d="M1105,-191.06C1105,-217.82 1105,-243 1105,-243 1105,-243 1717.56,-243 1717.56,-243"/>
<polygon fill="black" stroke="black" points="1717.56,-246.5 1727.56,-243 1717.56,-239.5 1717.56,-246.5"/>
</g>
<!-- provideMessaging(() =&gt; getMessaging()) -->
<g id="node12" class="node">
<title>provideMessaging(() =&gt; getMessaging())</title>
<polygon fill="#8dd3c7" stroke="black" points="949.96,-146.4 946.96,-150.4 925.96,-150.4 922.96,-146.4 702.04,-146.4 702.04,-110.4 949.96,-110.4 949.96,-146.4"/>
<text text-anchor="middle" x="826" y="-124.2" font-family="Times,serif" font-size="14.00">provideMessaging(() =&gt; getMessaging())</text>
</g>
<!-- provideMessaging(() =&gt; getMessaging())&#45;&gt;CoreModule -->
<g id="edge11" class="edge">
<title>provideMessaging(() =&gt; getMessaging())&#45;&gt;CoreModule</title>
<path fill="none" stroke="black" d="M826,-146.46C826,-180.1 826,-249 826,-249 826,-249 1717.63,-249 1717.63,-249"/>
<polygon fill="black" stroke="black" points="1717.63,-252.5 1727.63,-249 1717.63,-245.5 1717.63,-252.5"/>
</g>
<!-- provideRemoteConfig(() =&gt; getRemoteConfig()) -->
<g id="node13" class="node">
<title>provideRemoteConfig(() =&gt; getRemoteConfig())</title>
<polygon fill="#8dd3c7" stroke="black" points="683.5,-146.4 680.5,-150.4 659.5,-150.4 656.5,-146.4 392.5,-146.4 392.5,-110.4 683.5,-110.4 683.5,-146.4"/>
<text text-anchor="middle" x="538" y="-124.2" font-family="Times,serif" font-size="14.00">provideRemoteConfig(() =&gt; getRemoteConfig())</text>
</g>
<!-- provideRemoteConfig(() =&gt; getRemoteConfig())&#45;&gt;CoreModule -->
<g id="edge12" class="edge">
<title>provideRemoteConfig(() =&gt; getRemoteConfig())&#45;&gt;CoreModule</title>
<path fill="none" stroke="black" d="M538,-146.54C538,-181.54 538,-255 538,-255 538,-255 1717.48,-255 1717.48,-255"/>
<polygon fill="black" stroke="black" points="1717.48,-258.5 1727.48,-255 1717.48,-251.5 1717.48,-258.5"/>
</g>
<!-- provideStorage(() =&gt; {
 &#160;&#160;&#160;const storage = getStorage();
 &#160;&#160;&#160;if (FIREBASE_USE_EMULATORS) {
 &#160;&#160;&#160;&#160;&#160;&#160;&#160;connectStorageEmulator(storage, , );
 &#160;&#160;&#160;}
 &#160;&#160;&#160;return storage;
}) -->
<g id="node14" class="node">
<title>provideStorage(() =&gt; {
 &#160;&#160;&#160;const storage = getStorage();
 &#160;&#160;&#160;if (FIREBASE_USE_EMULATORS) {
 &#160;&#160;&#160;&#160;&#160;&#160;&#160;connectStorageEmulator(storage, , );
 &#160;&#160;&#160;}
 &#160;&#160;&#160;return storage;
})</title>
<polygon fill="#8dd3c7" stroke="black" points="373.73,-191 370.73,-195 349.73,-195 346.73,-191 120.27,-191 120.27,-65.8 373.73,-65.8 373.73,-191"/>
<text text-anchor="middle" x="247" y="-174.6" font-family="Times,serif" font-size="14.00">provideStorage(() =&gt; {</text>
<text text-anchor="middle" x="247" y="-157.8" font-family="Times,serif" font-size="14.00"> &#160;&#160;&#160;const storage = getStorage();</text>
<text text-anchor="middle" x="247" y="-141" font-family="Times,serif" font-size="14.00"> &#160;&#160;&#160;if (FIREBASE_USE_EMULATORS) {</text>
<text text-anchor="middle" x="247" y="-124.2" font-family="Times,serif" font-size="14.00"> &#160;&#160;&#160;&#160;&#160;&#160;&#160;connectStorageEmulator(storage, , );</text>
<text text-anchor="middle" x="247" y="-107.4" font-family="Times,serif" font-size="14.00"> &#160;&#160;&#160;}</text>
<text text-anchor="middle" x="247" y="-90.6" font-family="Times,serif" font-size="14.00"> &#160;&#160;&#160;return storage;</text>
<text text-anchor="middle" x="247" y="-73.8" font-family="Times,serif" font-size="14.00">})</text>
</g>
<!-- provideStorage(() =&gt; {
 &#160;&#160;&#160;const storage = getStorage();
 &#160;&#160;&#160;if (FIREBASE_USE_EMULATORS) {
 &#160;&#160;&#160;&#160;&#160;&#160;&#160;connectStorageEmulator(storage, , );
 &#160;&#160;&#160;}
 &#160;&#160;&#160;return storage;
})&#45;&gt;CoreModule -->
<g id="edge13" class="edge">
<title>provideStorage(() =&gt; {
 &#160;&#160;&#160;const storage = getStorage();
 &#160;&#160;&#160;if (FIREBASE_USE_EMULATORS) {
 &#160;&#160;&#160;&#160;&#160;&#160;&#160;connectStorageEmulator(storage, , );
 &#160;&#160;&#160;}
 &#160;&#160;&#160;return storage;
})&#45;&gt;CoreModule</title>
<path fill="none" stroke="black" d="M247,-191.21C247,-225.48 247,-261 247,-261 247,-261 1717.44,-261 1717.44,-261"/>
<polygon fill="black" stroke="black" points="1717.44,-264.5 1727.44,-261 1717.44,-257.5 1717.44,-264.5"/>
</g>
</g>
</svg>
