<?xml version="1.0" encoding="UTF-8" standalone="no"?>
<!DOCTYPE svg PUBLIC "-//W3C//DTD SVG 1.1//EN"
 "http://www.w3.org/Graphics/SVG/1.1/DTD/svg11.dtd">
<!-- Generated by graphviz version 5.0.0 (20220707.1540)
 -->
<!-- Title: dependencies Pages: 1 -->
<svg width="348pt" height="247pt"
 viewBox="0.00 0.00 348.00 246.80" xmlns="http://www.w3.org/2000/svg" xmlns:xlink="http://www.w3.org/1999/xlink">
<g id="graph0" class="graph" transform="scale(1 1) rotate(0) translate(4 242.8)">
<title>dependencies</title>
<polygon fill="white" stroke="transparent" points="-4,4 -4,-242.8 344,-242.8 344,4 -4,4"/>
<text text-anchor="middle" x="170" y="-8.2" font-family="sans-serif" font-size="14.00">dependencies</text>
<g id="clust1" class="cluster">
<title>cluster_PersonalDetailsModule</title>
<polygon fill="none" stroke="black" stroke-dasharray="1,5" points="8,-32.8 8,-230.8 332,-230.8 332,-32.8 8,-32.8"/>
</g>
<g id="clust2" class="cluster">
<title>cluster_PersonalDetailsModule_declarations</title>
<polygon fill="none" stroke="black" points="138,-40.8 138,-92.8 324,-92.8 324,-40.8 138,-40.8"/>
</g>
<g id="clust4" class="cluster">
<title>cluster_PersonalDetailsModule_imports</title>
<polygon fill="none" stroke="black" points="16,-40.8 16,-92.8 130,-92.8 130,-40.8 16,-40.8"/>
</g>
<g id="clust5" class="cluster">
<title>cluster_PersonalDetailsModule_exports</title>
<polygon fill="none" stroke="black" points="76,-170.8 76,-222.8 264,-222.8 264,-170.8 76,-170.8"/>
</g>
<!-- PersonalDetailsComponent -->
<g id="node1" class="node">
<title>PersonalDetailsComponent</title>
<polygon fill="#ffffb3" stroke="black" points="315.7,-84.8 146.3,-84.8 146.3,-48.8 315.7,-48.8 315.7,-84.8"/>
<text text-anchor="middle" x="231" y="-62.6" font-family="Times,serif" font-size="14.00">PersonalDetailsComponent</text>
</g>
<!-- PersonalDetailsModule -->
<g id="node2" class="node">
<title>PersonalDetailsModule</title>
<polygon fill="#8dd3c7" stroke="black" points="243.92,-149.8 240.92,-153.8 219.92,-153.8 216.92,-149.8 96.08,-149.8 96.08,-113.8 243.92,-113.8 243.92,-149.8"/>
<text text-anchor="middle" x="170" y="-127.6" font-family="Times,serif" font-size="14.00">PersonalDetailsModule</text>
</g>
<!-- PersonalDetailsComponent&#45;&gt;PersonalDetailsModule -->
<g id="edge1" class="edge">
<title>PersonalDetailsComponent&#45;&gt;PersonalDetailsModule</title>
<path fill="none" stroke="black" d="M195.06,-84.91C195.06,-84.91 195.06,-103.79 195.06,-103.79"/>
<polygon fill="black" stroke="black" points="191.56,-103.79 195.06,-113.79 198.56,-103.79 191.56,-103.79"/>
</g>
<!-- PersonalDetailsComponent  -->
<g id="node4" class="node">
<title>PersonalDetailsComponent </title>
<polygon fill="#fb8072" stroke="black" points="256.2,-214.8 83.8,-214.8 83.8,-178.8 256.2,-178.8 256.2,-214.8"/>
<text text-anchor="middle" x="170" y="-192.6" font-family="Times,serif" font-size="14.00">PersonalDetailsComponent </text>
</g>
<!-- PersonalDetailsModule&#45;&gt;PersonalDetailsComponent  -->
<g id="edge3" class="edge">
<title>PersonalDetailsModule&#45;&gt;PersonalDetailsComponent </title>
<path fill="none" stroke="black" stroke-dasharray="5,2" d="M170,-149.91C170,-149.91 170,-168.79 170,-168.79"/>
<polygon fill="black" stroke="black" points="166.5,-168.79 170,-178.79 173.5,-168.79 166.5,-168.79"/>
</g>
<!-- ProfileModule -->
<g id="node3" class="node">
<title>ProfileModule</title>
<polygon fill="#8dd3c7" stroke="black" points="121.66,-84.8 118.66,-88.8 97.66,-88.8 94.66,-84.8 24.34,-84.8 24.34,-48.8 121.66,-48.8 121.66,-84.8"/>
<text text-anchor="middle" x="73" y="-62.6" font-family="Times,serif" font-size="14.00">ProfileModule</text>
</g>
<!-- ProfileModule&#45;&gt;PersonalDetailsModule -->
<g id="edge2" class="edge">
<title>ProfileModule&#45;&gt;PersonalDetailsModule</title>
<path fill="none" stroke="black" d="M109.06,-84.91C109.06,-84.91 109.06,-103.79 109.06,-103.79"/>
<polygon fill="black" stroke="black" points="105.56,-103.79 109.06,-113.79 112.56,-103.79 105.56,-103.79"/>
</g>
</g>
</svg>
