<?xml version="1.0" encoding="UTF-8" standalone="no"?>
<!DOCTYPE svg PUBLIC "-//W3C//DTD SVG 1.1//EN"
 "http://www.w3.org/Graphics/SVG/1.1/DTD/svg11.dtd">
<!-- Generated by graphviz version 5.0.0 (20220707.1540)
 -->
<!-- Title: dependencies Pages: 1 -->
<svg width="364pt" height="247pt"
 viewBox="0.00 0.00 364.00 246.80" xmlns="http://www.w3.org/2000/svg" xmlns:xlink="http://www.w3.org/1999/xlink">
<g id="graph0" class="graph" transform="scale(1 1) rotate(0) translate(4 242.8)">
<title>dependencies</title>
<polygon fill="white" stroke="transparent" points="-4,4 -4,-242.8 360,-242.8 360,4 -4,4"/>
<text text-anchor="middle" x="178" y="-8.2" font-family="sans-serif" font-size="14.00">dependencies</text>
<g id="clust1" class="cluster">
<title>cluster_OccupationDetailsModule</title>
<polygon fill="none" stroke="black" stroke-dasharray="1,5" points="8,-32.8 8,-230.8 348,-230.8 348,-32.8 8,-32.8"/>
</g>
<g id="clust2" class="cluster">
<title>cluster_OccupationDetailsModule_declarations</title>
<polygon fill="none" stroke="black" points="138,-40.8 138,-92.8 340,-92.8 340,-40.8 138,-40.8"/>
</g>
<g id="clust4" class="cluster">
<title>cluster_OccupationDetailsModule_imports</title>
<polygon fill="none" stroke="black" points="16,-40.8 16,-92.8 130,-92.8 130,-40.8 16,-40.8"/>
</g>
<g id="clust5" class="cluster">
<title>cluster_OccupationDetailsModule_exports</title>
<polygon fill="none" stroke="black" points="75,-170.8 75,-222.8 281,-222.8 281,-170.8 75,-170.8"/>
</g>
<!-- OccupationDetailsComponent -->
<g id="node1" class="node">
<title>OccupationDetailsComponent</title>
<polygon fill="#ffffb3" stroke="black" points="331.52,-84.8 146.48,-84.8 146.48,-48.8 331.52,-48.8 331.52,-84.8"/>
<text text-anchor="middle" x="239" y="-62.6" font-family="Times,serif" font-size="14.00">OccupationDetailsComponent</text>
</g>
<!-- OccupationDetailsModule -->
<g id="node2" class="node">
<title>OccupationDetailsModule</title>
<polygon fill="#8dd3c7" stroke="black" points="259.74,-149.8 256.74,-153.8 235.74,-153.8 232.74,-149.8 96.26,-149.8 96.26,-113.8 259.74,-113.8 259.74,-149.8"/>
<text text-anchor="middle" x="178" y="-127.6" font-family="Times,serif" font-size="14.00">OccupationDetailsModule</text>
</g>
<!-- OccupationDetailsComponent&#45;&gt;OccupationDetailsModule -->
<g id="edge1" class="edge">
<title>OccupationDetailsComponent&#45;&gt;OccupationDetailsModule</title>
<path fill="none" stroke="black" d="M203.06,-84.91C203.06,-84.91 203.06,-103.79 203.06,-103.79"/>
<polygon fill="black" stroke="black" points="199.56,-103.79 203.06,-113.79 206.56,-103.79 199.56,-103.79"/>
</g>
<!-- OccupationDetailsComponent  -->
<g id="node4" class="node">
<title>OccupationDetailsComponent </title>
<polygon fill="#fb8072" stroke="black" points="272.52,-214.8 83.48,-214.8 83.48,-178.8 272.52,-178.8 272.52,-214.8"/>
<text text-anchor="middle" x="178" y="-192.6" font-family="Times,serif" font-size="14.00">OccupationDetailsComponent </text>
</g>
<!-- OccupationDetailsModule&#45;&gt;OccupationDetailsComponent  -->
<g id="edge3" class="edge">
<title>OccupationDetailsModule&#45;&gt;OccupationDetailsComponent </title>
<path fill="none" stroke="black" stroke-dasharray="5,2" d="M178,-149.91C178,-149.91 178,-168.79 178,-168.79"/>
<polygon fill="black" stroke="black" points="174.5,-168.79 178,-178.79 181.5,-168.79 174.5,-168.79"/>
</g>
<!-- ProfileModule -->
<g id="node3" class="node">
<title>ProfileModule</title>
<polygon fill="#8dd3c7" stroke="black" points="121.66,-84.8 118.66,-88.8 97.66,-88.8 94.66,-84.8 24.34,-84.8 24.34,-48.8 121.66,-48.8 121.66,-84.8"/>
<text text-anchor="middle" x="73" y="-62.6" font-family="Times,serif" font-size="14.00">ProfileModule</text>
</g>
<!-- ProfileModule&#45;&gt;OccupationDetailsModule -->
<g id="edge2" class="edge">
<title>ProfileModule&#45;&gt;OccupationDetailsModule</title>
<path fill="none" stroke="black" d="M108.98,-84.91C108.98,-84.91 108.98,-103.79 108.98,-103.79"/>
<polygon fill="black" stroke="black" points="105.48,-103.79 108.98,-113.79 112.48,-103.79 105.48,-103.79"/>
</g>
</g>
</svg>
