<?xml version="1.0" encoding="UTF-8" standalone="no"?>
<!DOCTYPE svg PUBLIC "-//W3C//DTD SVG 1.1//EN"
 "http://www.w3.org/Graphics/SVG/1.1/DTD/svg11.dtd">
<!-- Generated by graphviz version 5.0.0 (20220707.1540)
 -->
<!-- Title: dependencies Pages: 1 -->
<svg width="847pt" height="174pt"
 viewBox="0.00 0.00 847.00 173.80" xmlns="http://www.w3.org/2000/svg" xmlns:xlink="http://www.w3.org/1999/xlink">
<g id="graph0" class="graph" transform="scale(1 1) rotate(0) translate(4 169.8)">
<title>dependencies</title>
<polygon fill="white" stroke="transparent" points="-4,4 -4,-169.8 843,-169.8 843,4 -4,4"/>
<text text-anchor="middle" x="419.5" y="-8.2" font-family="sans-serif" font-size="14.00">dependencies</text>
<g id="clust1" class="cluster">
<title>cluster_AppFeedFeatureModule</title>
<polygon fill="none" stroke="black" stroke-dasharray="1,5" points="8,-32.8 8,-157.8 831,-157.8 831,-32.8 8,-32.8"/>
</g>
<g id="clust2" class="cluster">
<title>cluster_AppFeedFeatureModule_declarations</title>
<polygon fill="none" stroke="black" points="312,-40.8 312,-92.8 823,-92.8 823,-40.8 312,-40.8"/>
</g>
<g id="clust6" class="cluster">
<title>cluster_AppFeedFeatureModule_imports</title>
<polygon fill="none" stroke="black" points="16,-40.8 16,-92.8 304,-92.8 304,-40.8 16,-40.8"/>
</g>
<!-- FeedPageComponent -->
<g id="node1" class="node">
<title>FeedPageComponent</title>
<polygon fill="#ffffb3" stroke="black" points="814.76,-84.8 679.24,-84.8 679.24,-48.8 814.76,-48.8 814.76,-84.8"/>
<text text-anchor="middle" x="747" y="-62.6" font-family="Times,serif" font-size="14.00">FeedPageComponent</text>
</g>
<!-- AppFeedFeatureModule -->
<g id="node4" class="node">
<title>AppFeedFeatureModule</title>
<polygon fill="#8dd3c7" stroke="black" points="488.36,-149.8 485.36,-153.8 464.36,-153.8 461.36,-149.8 335.64,-149.8 335.64,-113.8 488.36,-113.8 488.36,-149.8"/>
<text text-anchor="middle" x="412" y="-127.6" font-family="Times,serif" font-size="14.00">AppFeedFeatureModule</text>
</g>
<!-- FeedPageComponent&#45;&gt;AppFeedFeatureModule -->
<g id="edge1" class="edge">
<title>FeedPageComponent&#45;&gt;AppFeedFeatureModule</title>
<path fill="none" stroke="black" d="M747,-85.08C747,-106.12 747,-137.8 747,-137.8 747,-137.8 498.44,-137.8 498.44,-137.8"/>
<polygon fill="black" stroke="black" points="498.44,-134.3 488.44,-137.8 498.44,-141.3 498.44,-134.3"/>
</g>
<!-- FeedViewComponent -->
<g id="node2" class="node">
<title>FeedViewComponent</title>
<polygon fill="#ffffb3" stroke="black" points="661.37,-84.8 522.63,-84.8 522.63,-48.8 661.37,-48.8 661.37,-84.8"/>
<text text-anchor="middle" x="592" y="-62.6" font-family="Times,serif" font-size="14.00">FeedViewComponent</text>
</g>
<!-- FeedViewComponent&#45;&gt;AppFeedFeatureModule -->
<g id="edge2" class="edge">
<title>FeedViewComponent&#45;&gt;AppFeedFeatureModule</title>
<path fill="none" stroke="black" d="M592,-84.82C592,-102.17 592,-125.8 592,-125.8 592,-125.8 498.6,-125.8 498.6,-125.8"/>
<polygon fill="black" stroke="black" points="498.6,-122.3 488.6,-125.8 498.6,-129.3 498.6,-122.3"/>
</g>
<!-- SearchComponentComponent -->
<g id="node3" class="node">
<title>SearchComponentComponent</title>
<polygon fill="#ffffb3" stroke="black" points="504.25,-84.8 319.75,-84.8 319.75,-48.8 504.25,-48.8 504.25,-84.8"/>
<text text-anchor="middle" x="412" y="-62.6" font-family="Times,serif" font-size="14.00">SearchComponentComponent</text>
</g>
<!-- SearchComponentComponent&#45;&gt;AppFeedFeatureModule -->
<g id="edge3" class="edge">
<title>SearchComponentComponent&#45;&gt;AppFeedFeatureModule</title>
<path fill="none" stroke="black" d="M412,-84.91C412,-84.91 412,-103.79 412,-103.79"/>
<polygon fill="black" stroke="black" points="408.5,-103.79 412,-113.79 415.5,-103.79 408.5,-103.79"/>
</g>
<!-- NavbarComponent -->
<g id="node5" class="node">
<title>NavbarComponent</title>
<polygon fill="#8dd3c7" stroke="black" points="296.03,-84.8 293.03,-88.8 272.03,-88.8 269.03,-84.8 173.97,-84.8 173.97,-48.8 296.03,-48.8 296.03,-84.8"/>
<text text-anchor="middle" x="235" y="-62.6" font-family="Times,serif" font-size="14.00">NavbarComponent</text>
</g>
<!-- NavbarComponent&#45;&gt;AppFeedFeatureModule -->
<g id="edge4" class="edge">
<title>NavbarComponent&#45;&gt;AppFeedFeatureModule</title>
<path fill="none" stroke="black" d="M235,-84.82C235,-102.17 235,-125.8 235,-125.8 235,-125.8 325.39,-125.8 325.39,-125.8"/>
<polygon fill="black" stroke="black" points="325.39,-129.3 335.39,-125.8 325.39,-122.3 325.39,-129.3"/>
</g>
<!-- TimeBarComponent -->
<g id="node6" class="node">
<title>TimeBarComponent</title>
<polygon fill="#8dd3c7" stroke="black" points="155.59,-84.8 152.59,-88.8 131.59,-88.8 128.59,-84.8 24.41,-84.8 24.41,-48.8 155.59,-48.8 155.59,-84.8"/>
<text text-anchor="middle" x="90" y="-62.6" font-family="Times,serif" font-size="14.00">TimeBarComponent</text>
</g>
<!-- TimeBarComponent&#45;&gt;AppFeedFeatureModule -->
<g id="edge5" class="edge">
<title>TimeBarComponent&#45;&gt;AppFeedFeatureModule</title>
<path fill="none" stroke="black" d="M90,-85.08C90,-106.12 90,-137.8 90,-137.8 90,-137.8 325.28,-137.8 325.28,-137.8"/>
<polygon fill="black" stroke="black" points="325.28,-141.3 335.28,-137.8 325.28,-134.3 325.28,-141.3"/>
</g>
</g>
</svg>
