<?xml version="1.0" encoding="UTF-8" standalone="no"?>
<!DOCTYPE svg PUBLIC "-//W3C//DTD SVG 1.1//EN"
 "http://www.w3.org/Graphics/SVG/1.1/DTD/svg11.dtd">
<!-- Generated by graphviz version 5.0.0 (20220707.1540)
 -->
<!-- Title: dependencies Pages: 1 -->
<svg width="360pt" height="174pt"
 viewBox="0.00 0.00 360.00 173.80" xmlns="http://www.w3.org/2000/svg" xmlns:xlink="http://www.w3.org/1999/xlink">
<g id="graph0" class="graph" transform="scale(1 1) rotate(0) translate(4 169.8)">
<title>dependencies</title>
<polygon fill="white" stroke="transparent" points="-4,4 -4,-169.8 356,-169.8 356,4 -4,4"/>
<text text-anchor="middle" x="176" y="-8.2" font-family="sans-serif" font-size="14.00">dependencies</text>
<g id="clust1" class="cluster">
<title>cluster_TosModule</title>
<polygon fill="none" stroke="black" stroke-dasharray="1,5" points="8,-32.8 8,-157.8 344,-157.8 344,-32.8 8,-32.8"/>
</g>
<g id="clust2" class="cluster">
<title>cluster_TosModule_declarations</title>
<polygon fill="none" stroke="black" points="256,-40.8 256,-92.8 336,-92.8 336,-40.8 256,-40.8"/>
</g>
<g id="clust4" class="cluster">
<title>cluster_TosModule_imports</title>
<polygon fill="none" stroke="black" points="16,-40.8 16,-92.8 248,-92.8 248,-40.8 16,-40.8"/>
</g>
<!-- TosPage -->
<g id="node1" class="node">
<title>TosPage</title>
<polygon fill="#ffffb3" stroke="black" points="328.21,-84.8 263.79,-84.8 263.79,-48.8 328.21,-48.8 328.21,-84.8"/>
<text text-anchor="middle" x="296" y="-62.6" font-family="Times,serif" font-size="14.00">TosPage</text>
</g>
<!-- TosModule -->
<g id="node2" class="node">
<title>TosModule</title>
<polygon fill="#8dd3c7" stroke="black" points="222.05,-149.8 219.05,-153.8 198.05,-153.8 195.05,-149.8 141.95,-149.8 141.95,-113.8 222.05,-113.8 222.05,-149.8"/>
<text text-anchor="middle" x="182" y="-127.6" font-family="Times,serif" font-size="14.00">TosModule</text>
</g>
<!-- TosPage&#45;&gt;TosModule -->
<g id="edge1" class="edge">
<title>TosPage&#45;&gt;TosModule</title>
<path fill="none" stroke="black" d="M296,-84.91C296,-104.14 296,-131.8 296,-131.8 296,-131.8 232.19,-131.8 232.19,-131.8"/>
<polygon fill="black" stroke="black" points="232.19,-128.3 222.19,-131.8 232.19,-135.3 232.19,-128.3"/>
</g>
<!-- CopyrightModule -->
<g id="node3" class="node">
<title>CopyrightModule</title>
<polygon fill="#8dd3c7" stroke="black" points="240.33,-84.8 237.33,-88.8 216.33,-88.8 213.33,-84.8 123.67,-84.8 123.67,-48.8 240.33,-48.8 240.33,-84.8"/>
<text text-anchor="middle" x="182" y="-62.6" font-family="Times,serif" font-size="14.00">CopyrightModule</text>
</g>
<!-- CopyrightModule&#45;&gt;TosModule -->
<g id="edge2" class="edge">
<title>CopyrightModule&#45;&gt;TosModule</title>
<path fill="none" stroke="black" d="M182,-84.91C182,-84.91 182,-103.79 182,-103.79"/>
<polygon fill="black" stroke="black" points="178.5,-103.79 182,-113.79 185.5,-103.79 178.5,-103.79"/>
</g>
<!-- TosRouting -->
<g id="node4" class="node">
<title>TosRouting</title>
<polygon fill="#8dd3c7" stroke="black" points="106.12,-84.8 103.12,-88.8 82.12,-88.8 79.12,-84.8 23.88,-84.8 23.88,-48.8 106.12,-48.8 106.12,-84.8"/>
<text text-anchor="middle" x="65" y="-62.6" font-family="Times,serif" font-size="14.00">TosRouting</text>
</g>
<!-- TosRouting&#45;&gt;TosModule -->
<g id="edge3" class="edge">
<title>TosRouting&#45;&gt;TosModule</title>
<path fill="none" stroke="black" d="M65,-84.91C65,-104.14 65,-131.8 65,-131.8 65,-131.8 131.74,-131.8 131.74,-131.8"/>
<polygon fill="black" stroke="black" points="131.74,-135.3 141.74,-131.8 131.74,-128.3 131.74,-135.3"/>
</g>
</g>
</svg>
