<?xml version="1.0" encoding="UTF-8" standalone="no"?>
<!DOCTYPE svg PUBLIC "-//W3C//DTD SVG 1.1//EN"
 "http://www.w3.org/Graphics/SVG/1.1/DTD/svg11.dtd">
<!-- Generated by graphviz version 5.0.0 (20220707.1540)
 -->
<!-- Title: dependencies Pages: 1 -->
<svg width="422pt" height="174pt"
 viewBox="0.00 0.00 422.00 173.80" xmlns="http://www.w3.org/2000/svg" xmlns:xlink="http://www.w3.org/1999/xlink">
<g id="graph0" class="graph" transform="scale(1 1) rotate(0) translate(4 169.8)">
<title>dependencies</title>
<polygon fill="white" stroke="transparent" points="-4,4 -4,-169.8 418,-169.8 418,4 -4,4"/>
<text text-anchor="middle" x="207" y="-8.2" font-family="sans-serif" font-size="14.00">dependencies</text>
<g id="clust1" class="cluster">
<title>cluster_DashboardModule</title>
<polygon fill="none" stroke="black" stroke-dasharray="1,5" points="8,-32.8 8,-157.8 406,-157.8 406,-32.8 8,-32.8"/>
</g>
<g id="clust2" class="cluster">
<title>cluster_DashboardModule_declarations</title>
<polygon fill="none" stroke="black" points="278,-40.8 278,-92.8 398,-92.8 398,-40.8 278,-40.8"/>
</g>
<g id="clust4" class="cluster">
<title>cluster_DashboardModule_imports</title>
<polygon fill="none" stroke="black" points="16,-40.8 16,-92.8 270,-92.8 270,-40.8 16,-40.8"/>
</g>
<!-- DashboardPage -->
<g id="node1" class="node">
<title>DashboardPage</title>
<polygon fill="#ffffb3" stroke="black" points="389.86,-84.8 286.14,-84.8 286.14,-48.8 389.86,-48.8 389.86,-84.8"/>
<text text-anchor="middle" x="338" y="-62.6" font-family="Times,serif" font-size="14.00">DashboardPage</text>
</g>
<!-- DashboardModule -->
<g id="node2" class="node">
<title>DashboardModule</title>
<polygon fill="#8dd3c7" stroke="black" points="261.2,-149.8 258.2,-153.8 237.2,-153.8 234.2,-149.8 140.8,-149.8 140.8,-113.8 261.2,-113.8 261.2,-149.8"/>
<text text-anchor="middle" x="201" y="-127.6" font-family="Times,serif" font-size="14.00">DashboardModule</text>
</g>
<!-- DashboardPage&#45;&gt;DashboardModule -->
<g id="edge1" class="edge">
<title>DashboardPage&#45;&gt;DashboardModule</title>
<path fill="none" stroke="black" d="M338,-84.91C338,-104.14 338,-131.8 338,-131.8 338,-131.8 271.49,-131.8 271.49,-131.8"/>
<polygon fill="black" stroke="black" points="271.49,-128.3 261.49,-131.8 271.49,-135.3 271.49,-128.3"/>
</g>
<!-- DashboardRouting -->
<g id="node3" class="node">
<title>DashboardRouting</title>
<polygon fill="#8dd3c7" stroke="black" points="261.77,-84.8 258.77,-88.8 237.77,-88.8 234.77,-84.8 140.23,-84.8 140.23,-48.8 261.77,-48.8 261.77,-84.8"/>
<text text-anchor="middle" x="201" y="-62.6" font-family="Times,serif" font-size="14.00">DashboardRouting</text>
</g>
<!-- DashboardRouting&#45;&gt;DashboardModule -->
<g id="edge2" class="edge">
<title>DashboardRouting&#45;&gt;DashboardModule</title>
<path fill="none" stroke="black" d="M201,-84.91C201,-84.91 201,-103.79 201,-103.79"/>
<polygon fill="black" stroke="black" points="197.5,-103.79 201,-113.79 204.5,-103.79 197.5,-103.79"/>
</g>
<!-- ProfileModule -->
<g id="node4" class="node">
<title>ProfileModule</title>
<polygon fill="#8dd3c7" stroke="black" points="121.66,-84.8 118.66,-88.8 97.66,-88.8 94.66,-84.8 24.34,-84.8 24.34,-48.8 121.66,-48.8 121.66,-84.8"/>
<text text-anchor="middle" x="73" y="-62.6" font-family="Times,serif" font-size="14.00">ProfileModule</text>
</g>
<!-- ProfileModule&#45;&gt;DashboardModule -->
<g id="edge3" class="edge">
<title>ProfileModule&#45;&gt;DashboardModule</title>
<path fill="none" stroke="black" d="M73,-84.91C73,-104.14 73,-131.8 73,-131.8 73,-131.8 130.75,-131.8 130.75,-131.8"/>
<polygon fill="black" stroke="black" points="130.75,-135.3 140.75,-131.8 130.75,-128.3 130.75,-135.3"/>
</g>
</g>
</svg>
