<?xml version="1.0" encoding="UTF-8" standalone="no"?>
<!DOCTYPE svg PUBLIC "-//W3C//DTD SVG 1.1//EN"
 "http://www.w3.org/Graphics/SVG/1.1/DTD/svg11.dtd">
<!-- Generated by graphviz version 5.0.0 (20220707.1540)
 -->
<!-- Title: dependencies Pages: 1 -->
<svg width="280pt" height="174pt"
 viewBox="0.00 0.00 280.00 173.80" xmlns="http://www.w3.org/2000/svg" xmlns:xlink="http://www.w3.org/1999/xlink">
<g id="graph0" class="graph" transform="scale(1 1) rotate(0) translate(4 169.8)">
<title>dependencies</title>
<polygon fill="white" stroke="transparent" points="-4,4 -4,-169.8 276,-169.8 276,4 -4,4"/>
<text text-anchor="middle" x="136" y="-8.2" font-family="sans-serif" font-size="14.00">dependencies</text>
<g id="clust1" class="cluster">
<title>cluster_ProfileModule</title>
<polygon fill="none" stroke="black" stroke-dasharray="1,5" points="8,-32.8 8,-157.8 264,-157.8 264,-32.8 8,-32.8"/>
</g>
<g id="clust3" class="cluster">
<title>cluster_ProfileModule_imports</title>
<polygon fill="none" stroke="black" points="152,-40.8 152,-92.8 256,-92.8 256,-40.8 152,-40.8"/>
</g>
<g id="clust6" class="cluster">
<title>cluster_ProfileModule_providers</title>
<polygon fill="none" stroke="black" points="16,-40.8 16,-92.8 144,-92.8 144,-40.8 16,-40.8"/>
</g>
<!-- AuthModule -->
<g id="node1" class="node">
<title>AuthModule</title>
<polygon fill="#8dd3c7" stroke="black" points="247.55,-84.8 244.55,-88.8 223.55,-88.8 220.55,-84.8 160.45,-84.8 160.45,-48.8 247.55,-48.8 247.55,-84.8"/>
<text text-anchor="middle" x="204" y="-62.6" font-family="Times,serif" font-size="14.00">AuthModule</text>
</g>
<!-- ProfileModule -->
<g id="node2" class="node">
<title>ProfileModule</title>
<polygon fill="#8dd3c7" stroke="black" points="190.66,-149.8 187.66,-153.8 166.66,-153.8 163.66,-149.8 93.34,-149.8 93.34,-113.8 190.66,-113.8 190.66,-149.8"/>
<text text-anchor="middle" x="142" y="-127.6" font-family="Times,serif" font-size="14.00">ProfileModule</text>
</g>
<!-- AuthModule&#45;&gt;ProfileModule -->
<g id="edge1" class="edge">
<title>AuthModule&#45;&gt;ProfileModule</title>
<path fill="none" stroke="black" d="M175.53,-84.91C175.53,-84.91 175.53,-103.79 175.53,-103.79"/>
<polygon fill="black" stroke="black" points="172.03,-103.79 175.53,-113.79 179.03,-103.79 172.03,-103.79"/>
</g>
<!-- ProfilesApi -->
<g id="node3" class="node">
<title>ProfilesApi</title>
<ellipse fill="#fdb462" stroke="black" cx="80" cy="-66.8" rx="55.63" ry="18"/>
<text text-anchor="middle" x="80" y="-62.6" font-family="Times,serif" font-size="14.00">ProfilesApi</text>
</g>
<!-- ProfilesApi&#45;&gt;ProfileModule -->
<g id="edge2" class="edge">
<title>ProfilesApi&#45;&gt;ProfileModule</title>
<path fill="none" stroke="black" d="M114.37,-81.23C114.37,-81.23 114.37,-103.69 114.37,-103.69"/>
<polygon fill="black" stroke="black" points="110.87,-103.69 114.37,-113.69 117.87,-103.69 110.87,-103.69"/>
</g>
</g>
</svg>
