<?xml version="1.0" encoding="UTF-8" standalone="no"?>
<!DOCTYPE svg PUBLIC "-//W3C//DTD SVG 1.1//EN"
 "http://www.w3.org/Graphics/SVG/1.1/DTD/svg11.dtd">
<!-- Generated by graphviz version 5.0.0 (20220707.1540)
 -->
<!-- Title: dependencies Pages: 1 -->
<svg width="441pt" height="174pt"
 viewBox="0.00 0.00 441.00 173.80" xmlns="http://www.w3.org/2000/svg" xmlns:xlink="http://www.w3.org/1999/xlink">
<g id="graph0" class="graph" transform="scale(1 1) rotate(0) translate(4 169.8)">
<title>dependencies</title>
<polygon fill="white" stroke="transparent" points="-4,4 -4,-169.8 437,-169.8 437,4 -4,4"/>
<text text-anchor="middle" x="216.5" y="-8.2" font-family="sans-serif" font-size="14.00">dependencies</text>
<g id="clust1" class="cluster">
<title>cluster_PostModule</title>
<polygon fill="none" stroke="black" stroke-dasharray="1,5" points="8,-32.8 8,-157.8 425,-157.8 425,-32.8 8,-32.8"/>
</g>
<g id="clust3" class="cluster">
<title>cluster_PostModule_imports</title>
<polygon fill="none" stroke="black" points="16,-40.8 16,-92.8 417,-92.8 417,-40.8 16,-40.8"/>
</g>
<!-- PostPageComponent -->
<g id="node1" class="node">
<title>PostPageComponent</title>
<polygon fill="#8dd3c7" stroke="black" points="409.17,-84.8 406.17,-88.8 385.17,-88.8 382.17,-84.8 276.83,-84.8 276.83,-48.8 409.17,-48.8 409.17,-84.8"/>
<text text-anchor="middle" x="343" y="-62.6" font-family="Times,serif" font-size="14.00">PostPageComponent</text>
</g>
<!-- PostModule -->
<g id="node4" class="node">
<title>PostModule</title>
<polygon fill="#8dd3c7" stroke="black" points="257.68,-149.8 254.68,-153.8 233.68,-153.8 230.68,-149.8 174.32,-149.8 174.32,-113.8 257.68,-113.8 257.68,-149.8"/>
<text text-anchor="middle" x="216" y="-127.6" font-family="Times,serif" font-size="14.00">PostModule</text>
</g>
<!-- PostPageComponent&#45;&gt;PostModule -->
<g id="edge1" class="edge">
<title>PostPageComponent&#45;&gt;PostModule</title>
<path fill="none" stroke="black" d="M343,-84.91C343,-104.14 343,-131.8 343,-131.8 343,-131.8 267.94,-131.8 267.94,-131.8"/>
<polygon fill="black" stroke="black" points="267.94,-128.3 257.94,-131.8 267.94,-135.3 267.94,-128.3"/>
</g>
<!-- PostRouting -->
<g id="node2" class="node">
<title>PostRouting</title>
<polygon fill="#8dd3c7" stroke="black" points="258.74,-84.8 255.74,-88.8 234.74,-88.8 231.74,-84.8 173.26,-84.8 173.26,-48.8 258.74,-48.8 258.74,-84.8"/>
<text text-anchor="middle" x="216" y="-62.6" font-family="Times,serif" font-size="14.00">PostRouting</text>
</g>
<!-- PostRouting&#45;&gt;PostModule -->
<g id="edge2" class="edge">
<title>PostRouting&#45;&gt;PostModule</title>
<path fill="none" stroke="black" d="M216,-84.91C216,-84.91 216,-103.79 216,-103.79"/>
<polygon fill="black" stroke="black" points="212.5,-103.79 216,-113.79 219.5,-103.79 212.5,-103.79"/>
</g>
<!-- TimeBarComponent -->
<g id="node3" class="node">
<title>TimeBarComponent</title>
<polygon fill="#8dd3c7" stroke="black" points="155.59,-84.8 152.59,-88.8 131.59,-88.8 128.59,-84.8 24.41,-84.8 24.41,-48.8 155.59,-48.8 155.59,-84.8"/>
<text text-anchor="middle" x="90" y="-62.6" font-family="Times,serif" font-size="14.00">TimeBarComponent</text>
</g>
<!-- TimeBarComponent&#45;&gt;PostModule -->
<g id="edge3" class="edge">
<title>TimeBarComponent&#45;&gt;PostModule</title>
<path fill="none" stroke="black" d="M90,-84.91C90,-104.14 90,-131.8 90,-131.8 90,-131.8 164.04,-131.8 164.04,-131.8"/>
<polygon fill="black" stroke="black" points="164.04,-135.3 174.04,-131.8 164.04,-128.3 164.04,-135.3"/>
</g>
</g>
</svg>
