<?xml version="1.0" encoding="UTF-8" standalone="no"?>
<!DOCTYPE svg PUBLIC "-//W3C//DTD SVG 1.1//EN"
 "http://www.w3.org/Graphics/SVG/1.1/DTD/svg11.dtd">
<!-- Generated by graphviz version 5.0.0 (20220707.1540)
 -->
<!-- Title: dependencies Pages: 1 -->
<svg width="562pt" height="174pt"
 viewBox="0.00 0.00 562.00 173.80" xmlns="http://www.w3.org/2000/svg" xmlns:xlink="http://www.w3.org/1999/xlink">
<g id="graph0" class="graph" transform="scale(1 1) rotate(0) translate(4 169.8)">
<title>dependencies</title>
<polygon fill="white" stroke="transparent" points="-4,4 -4,-169.8 558,-169.8 558,4 -4,4"/>
<text text-anchor="middle" x="277" y="-8.2" font-family="sans-serif" font-size="14.00">dependencies</text>
<g id="clust1" class="cluster">
<title>cluster_AppMyProfileFeatureModule</title>
<polygon fill="none" stroke="black" stroke-dasharray="1,5" points="8,-32.8 8,-157.8 546,-157.8 546,-32.8 8,-32.8"/>
</g>
<g id="clust3" class="cluster">
<title>cluster_AppMyProfileFeatureModule_imports</title>
<polygon fill="none" stroke="black" points="16,-40.8 16,-92.8 538,-92.8 538,-40.8 16,-40.8"/>
</g>
<!-- HeaderComponent -->
<g id="node1" class="node">
<title>HeaderComponent</title>
<polygon fill="#8dd3c7" stroke="black" points="529.75,-84.8 526.75,-88.8 505.75,-88.8 502.75,-84.8 408.25,-84.8 408.25,-48.8 529.75,-48.8 529.75,-84.8"/>
<text text-anchor="middle" x="469" y="-62.6" font-family="Times,serif" font-size="14.00">HeaderComponent</text>
</g>
<!-- AppMyProfileFeatureModule -->
<g id="node4" class="node">
<title>AppMyProfileFeatureModule</title>
<polygon fill="#8dd3c7" stroke="black" points="395.69,-149.8 392.69,-153.8 371.69,-153.8 368.69,-149.8 212.31,-149.8 212.31,-113.8 395.69,-113.8 395.69,-149.8"/>
<text text-anchor="middle" x="304" y="-127.6" font-family="Times,serif" font-size="14.00">AppMyProfileFeatureModule</text>
</g>
<!-- HeaderComponent&#45;&gt;AppMyProfileFeatureModule -->
<g id="edge1" class="edge">
<title>HeaderComponent&#45;&gt;AppMyProfileFeatureModule</title>
<path fill="none" stroke="black" d="M469,-84.91C469,-104.14 469,-131.8 469,-131.8 469,-131.8 405.67,-131.8 405.67,-131.8"/>
<polygon fill="black" stroke="black" points="405.67,-128.3 395.67,-131.8 405.67,-135.3 405.67,-128.3"/>
</g>
<!-- ImageContainerComponent -->
<g id="node2" class="node">
<title>ImageContainerComponent</title>
<polygon fill="#8dd3c7" stroke="black" points="389.52,-84.8 386.52,-88.8 365.52,-88.8 362.52,-84.8 218.48,-84.8 218.48,-48.8 389.52,-48.8 389.52,-84.8"/>
<text text-anchor="middle" x="304" y="-62.6" font-family="Times,serif" font-size="14.00">ImageContainerComponent</text>
</g>
<!-- ImageContainerComponent&#45;&gt;AppMyProfileFeatureModule -->
<g id="edge2" class="edge">
<title>ImageContainerComponent&#45;&gt;AppMyProfileFeatureModule</title>
<path fill="none" stroke="black" d="M304,-84.91C304,-84.91 304,-103.79 304,-103.79"/>
<polygon fill="black" stroke="black" points="300.5,-103.79 304,-113.79 307.5,-103.79 300.5,-103.79"/>
</g>
<!-- ProfileMainPageComponent -->
<g id="node3" class="node">
<title>ProfileMainPageComponent</title>
<polygon fill="#8dd3c7" stroke="black" points="200.2,-84.8 197.2,-88.8 176.2,-88.8 173.2,-84.8 23.8,-84.8 23.8,-48.8 200.2,-48.8 200.2,-84.8"/>
<text text-anchor="middle" x="112" y="-62.6" font-family="Times,serif" font-size="14.00">ProfileMainPageComponent</text>
</g>
<!-- ProfileMainPageComponent&#45;&gt;AppMyProfileFeatureModule -->
<g id="edge3" class="edge">
<title>ProfileMainPageComponent&#45;&gt;AppMyProfileFeatureModule</title>
<path fill="none" stroke="black" d="M112,-84.91C112,-104.14 112,-131.8 112,-131.8 112,-131.8 202.22,-131.8 202.22,-131.8"/>
<polygon fill="black" stroke="black" points="202.22,-135.3 212.22,-131.8 202.22,-128.3 202.22,-135.3"/>
</g>
</g>
</svg>
