<?xml version="1.0" encoding="UTF-8" standalone="no"?>
<!DOCTYPE svg PUBLIC "-//W3C//DTD SVG 1.1//EN"
 "http://www.w3.org/Graphics/SVG/1.1/DTD/svg11.dtd">
<!-- Generated by graphviz version 5.0.0 (20220707.1540)
 -->
<!-- Title: dependencies Pages: 1 -->
<svg width="384pt" height="174pt"
 viewBox="0.00 0.00 384.00 173.80" xmlns="http://www.w3.org/2000/svg" xmlns:xlink="http://www.w3.org/1999/xlink">
<g id="graph0" class="graph" transform="scale(1 1) rotate(0) translate(4 169.8)">
<title>dependencies</title>
<polygon fill="white" stroke="transparent" points="-4,4 -4,-169.8 380,-169.8 380,4 -4,4"/>
<text text-anchor="middle" x="188" y="-8.2" font-family="sans-serif" font-size="14.00">dependencies</text>
<g id="clust1" class="cluster">
<title>cluster_LoginModule</title>
<polygon fill="none" stroke="black" stroke-dasharray="1,5" points="8,-32.8 8,-157.8 368,-157.8 368,-32.8 8,-32.8"/>
</g>
<g id="clust4" class="cluster">
<title>cluster_LoginModule_imports</title>
<polygon fill="none" stroke="black" points="116,-40.8 116,-92.8 360,-92.8 360,-40.8 116,-40.8"/>
</g>
<g id="clust2" class="cluster">
<title>cluster_LoginModule_declarations</title>
<polygon fill="none" stroke="black" points="16,-40.8 16,-92.8 108,-92.8 108,-40.8 16,-40.8"/>
</g>
<!-- LoginPage -->
<g id="node1" class="node">
<title>LoginPage</title>
<polygon fill="#ffffb3" stroke="black" points="100.16,-84.8 23.84,-84.8 23.84,-48.8 100.16,-48.8 100.16,-84.8"/>
<text text-anchor="middle" x="62" y="-62.6" font-family="Times,serif" font-size="14.00">LoginPage</text>
</g>
<!-- LoginModule -->
<g id="node2" class="node">
<title>LoginModule</title>
<polygon fill="#8dd3c7" stroke="black" points="217.49,-149.8 214.49,-153.8 193.49,-153.8 190.49,-149.8 124.51,-149.8 124.51,-113.8 217.49,-113.8 217.49,-149.8"/>
<text text-anchor="middle" x="171" y="-127.6" font-family="Times,serif" font-size="14.00">LoginModule</text>
</g>
<!-- LoginPage&#45;&gt;LoginModule -->
<g id="edge1" class="edge">
<title>LoginPage&#45;&gt;LoginModule</title>
<path fill="none" stroke="black" d="M62,-84.91C62,-104.14 62,-131.8 62,-131.8 62,-131.8 114.46,-131.8 114.46,-131.8"/>
<polygon fill="black" stroke="black" points="114.46,-135.3 124.46,-131.8 114.46,-128.3 114.46,-135.3"/>
</g>
<!-- CopyrightModule -->
<g id="node3" class="node">
<title>CopyrightModule</title>
<polygon fill="#8dd3c7" stroke="black" points="352.33,-84.8 349.33,-88.8 328.33,-88.8 325.33,-84.8 235.67,-84.8 235.67,-48.8 352.33,-48.8 352.33,-84.8"/>
<text text-anchor="middle" x="294" y="-62.6" font-family="Times,serif" font-size="14.00">CopyrightModule</text>
</g>
<!-- CopyrightModule&#45;&gt;LoginModule -->
<g id="edge2" class="edge">
<title>CopyrightModule&#45;&gt;LoginModule</title>
<path fill="none" stroke="black" d="M294,-84.91C294,-104.14 294,-131.8 294,-131.8 294,-131.8 227.5,-131.8 227.5,-131.8"/>
<polygon fill="black" stroke="black" points="227.5,-128.3 217.5,-131.8 227.5,-135.3 227.5,-128.3"/>
</g>
<!-- LoginRouting -->
<g id="node4" class="node">
<title>LoginRouting</title>
<polygon fill="#8dd3c7" stroke="black" points="218.06,-84.8 215.06,-88.8 194.06,-88.8 191.06,-84.8 123.94,-84.8 123.94,-48.8 218.06,-48.8 218.06,-84.8"/>
<text text-anchor="middle" x="171" y="-62.6" font-family="Times,serif" font-size="14.00">LoginRouting</text>
</g>
<!-- LoginRouting&#45;&gt;LoginModule -->
<g id="edge3" class="edge">
<title>LoginRouting&#45;&gt;LoginModule</title>
<path fill="none" stroke="black" d="M171,-84.91C171,-84.91 171,-103.79 171,-103.79"/>
<polygon fill="black" stroke="black" points="167.5,-103.79 171,-113.79 174.5,-103.79 167.5,-103.79"/>
</g>
</g>
</svg>
