<?xml version="1.0" encoding="UTF-8" standalone="no"?>
<!DOCTYPE svg PUBLIC "-//W3C//DTD SVG 1.1//EN"
 "http://www.w3.org/Graphics/SVG/1.1/DTD/svg11.dtd">
<!-- Generated by graphviz version 5.0.0 (20220707.1540)
 -->
<!-- Title: dependencies Pages: 1 -->
<svg width="342pt" height="247pt"
 viewBox="0.00 0.00 342.00 246.80" xmlns="http://www.w3.org/2000/svg" xmlns:xlink="http://www.w3.org/1999/xlink">
<g id="graph0" class="graph" transform="scale(1 1) rotate(0) translate(4 242.8)">
<title>dependencies</title>
<polygon fill="white" stroke="transparent" points="-4,4 -4,-242.8 338,-242.8 338,4 -4,4"/>
<text text-anchor="middle" x="167" y="-8.2" font-family="sans-serif" font-size="14.00">dependencies</text>
<g id="clust1" class="cluster">
<title>cluster_ContactDetailsModule</title>
<polygon fill="none" stroke="black" stroke-dasharray="1,5" points="8,-32.8 8,-230.8 326,-230.8 326,-32.8 8,-32.8"/>
</g>
<g id="clust2" class="cluster">
<title>cluster_ContactDetailsModule_declarations</title>
<polygon fill="none" stroke="black" points="138,-40.8 138,-92.8 318,-92.8 318,-40.8 138,-40.8"/>
</g>
<g id="clust5" class="cluster">
<title>cluster_ContactDetailsModule_exports</title>
<polygon fill="none" stroke="black" points="75,-170.8 75,-222.8 259,-222.8 259,-170.8 75,-170.8"/>
</g>
<g id="clust4" class="cluster">
<title>cluster_ContactDetailsModule_imports</title>
<polygon fill="none" stroke="black" points="16,-40.8 16,-92.8 130,-92.8 130,-40.8 16,-40.8"/>
</g>
<!-- ContactDetailsComponent -->
<g id="node1" class="node">
<title>ContactDetailsComponent</title>
<polygon fill="#ffffb3" stroke="black" points="310.03,-84.8 145.97,-84.8 145.97,-48.8 310.03,-48.8 310.03,-84.8"/>
<text text-anchor="middle" x="228" y="-62.6" font-family="Times,serif" font-size="14.00">ContactDetailsComponent</text>
</g>
<!-- ContactDetailsModule -->
<g id="node2" class="node">
<title>ContactDetailsModule</title>
<polygon fill="#8dd3c7" stroke="black" points="238.25,-149.8 235.25,-153.8 214.25,-153.8 211.25,-149.8 95.75,-149.8 95.75,-113.8 238.25,-113.8 238.25,-149.8"/>
<text text-anchor="middle" x="167" y="-127.6" font-family="Times,serif" font-size="14.00">ContactDetailsModule</text>
</g>
<!-- ContactDetailsComponent&#45;&gt;ContactDetailsModule -->
<g id="edge1" class="edge">
<title>ContactDetailsComponent&#45;&gt;ContactDetailsModule</title>
<path fill="none" stroke="black" d="M192.06,-84.91C192.06,-84.91 192.06,-103.79 192.06,-103.79"/>
<polygon fill="black" stroke="black" points="188.56,-103.79 192.06,-113.79 195.56,-103.79 188.56,-103.79"/>
</g>
<!-- ContactDetailsComponent  -->
<g id="node4" class="node">
<title>ContactDetailsComponent </title>
<polygon fill="#fb8072" stroke="black" points="251.03,-214.8 82.97,-214.8 82.97,-178.8 251.03,-178.8 251.03,-214.8"/>
<text text-anchor="middle" x="167" y="-192.6" font-family="Times,serif" font-size="14.00">ContactDetailsComponent </text>
</g>
<!-- ContactDetailsModule&#45;&gt;ContactDetailsComponent  -->
<g id="edge3" class="edge">
<title>ContactDetailsModule&#45;&gt;ContactDetailsComponent </title>
<path fill="none" stroke="black" stroke-dasharray="5,2" d="M167,-149.91C167,-149.91 167,-168.79 167,-168.79"/>
<polygon fill="black" stroke="black" points="163.5,-168.79 167,-178.79 170.5,-168.79 163.5,-168.79"/>
</g>
<!-- ProfileModule -->
<g id="node3" class="node">
<title>ProfileModule</title>
<polygon fill="#8dd3c7" stroke="black" points="121.66,-84.8 118.66,-88.8 97.66,-88.8 94.66,-84.8 24.34,-84.8 24.34,-48.8 121.66,-48.8 121.66,-84.8"/>
<text text-anchor="middle" x="73" y="-62.6" font-family="Times,serif" font-size="14.00">ProfileModule</text>
</g>
<!-- ProfileModule&#45;&gt;ContactDetailsModule -->
<g id="edge2" class="edge">
<title>ProfileModule&#45;&gt;ContactDetailsModule</title>
<path fill="none" stroke="black" d="M108.73,-84.91C108.73,-84.91 108.73,-103.79 108.73,-103.79"/>
<polygon fill="black" stroke="black" points="105.23,-103.79 108.73,-113.79 112.23,-103.79 105.23,-103.79"/>
</g>
</g>
</svg>
