<?xml version="1.0" encoding="UTF-8" standalone="no"?>
<!DOCTYPE svg PUBLIC "-//W3C//DTD SVG 1.1//EN"
 "http://www.w3.org/Graphics/SVG/1.1/DTD/svg11.dtd">
<!-- Generated by graphviz version 5.0.0 (20220707.1540)
 -->
<!-- Title: dependencies Pages: 1 -->
<svg width="546pt" height="174pt"
 viewBox="0.00 0.00 546.00 173.80" xmlns="http://www.w3.org/2000/svg" xmlns:xlink="http://www.w3.org/1999/xlink">
<g id="graph0" class="graph" transform="scale(1 1) rotate(0) translate(4 169.8)">
<title>dependencies</title>
<polygon fill="white" stroke="transparent" points="-4,4 -4,-169.8 542,-169.8 542,4 -4,4"/>
<text text-anchor="middle" x="269" y="-8.2" font-family="sans-serif" font-size="14.00">dependencies</text>
<g id="clust1" class="cluster">
<title>cluster_WelcomeModule</title>
<polygon fill="none" stroke="black" stroke-dasharray="1,5" points="8,-32.8 8,-157.8 530,-157.8 530,-32.8 8,-32.8"/>
</g>
<g id="clust2" class="cluster">
<title>cluster_WelcomeModule_declarations</title>
<polygon fill="none" stroke="black" points="410,-40.8 410,-92.8 522,-92.8 522,-40.8 410,-40.8"/>
</g>
<g id="clust4" class="cluster">
<title>cluster_WelcomeModule_imports</title>
<polygon fill="none" stroke="black" points="16,-40.8 16,-92.8 402,-92.8 402,-40.8 16,-40.8"/>
</g>
<!-- WelcomePage -->
<g id="node1" class="node">
<title>WelcomePage</title>
<polygon fill="#ffffb3" stroke="black" points="514.35,-84.8 417.65,-84.8 417.65,-48.8 514.35,-48.8 514.35,-84.8"/>
<text text-anchor="middle" x="466" y="-62.6" font-family="Times,serif" font-size="14.00">WelcomePage</text>
</g>
<!-- WelcomeModule -->
<g id="node2" class="node">
<title>WelcomeModule</title>
<polygon fill="#8dd3c7" stroke="black" points="328.69,-149.8 325.69,-153.8 304.69,-153.8 301.69,-149.8 215.31,-149.8 215.31,-113.8 328.69,-113.8 328.69,-149.8"/>
<text text-anchor="middle" x="272" y="-127.6" font-family="Times,serif" font-size="14.00">WelcomeModule</text>
</g>
<!-- WelcomePage&#45;&gt;WelcomeModule -->
<g id="edge1" class="edge">
<title>WelcomePage&#45;&gt;WelcomeModule</title>
<path fill="none" stroke="black" d="M466,-84.91C466,-104.14 466,-131.8 466,-131.8 466,-131.8 338.63,-131.8 338.63,-131.8"/>
<polygon fill="black" stroke="black" points="338.63,-128.3 328.63,-131.8 338.63,-135.3 338.63,-128.3"/>
</g>
<!-- CopyrightModule -->
<g id="node3" class="node">
<title>CopyrightModule</title>
<polygon fill="#8dd3c7" stroke="black" points="394.33,-84.8 391.33,-88.8 370.33,-88.8 367.33,-84.8 277.67,-84.8 277.67,-48.8 394.33,-48.8 394.33,-84.8"/>
<text text-anchor="middle" x="336" y="-62.6" font-family="Times,serif" font-size="14.00">CopyrightModule</text>
</g>
<!-- CopyrightModule&#45;&gt;WelcomeModule -->
<g id="edge2" class="edge">
<title>CopyrightModule&#45;&gt;WelcomeModule</title>
<path fill="none" stroke="black" d="M303.21,-84.91C303.21,-84.91 303.21,-103.79 303.21,-103.79"/>
<polygon fill="black" stroke="black" points="299.71,-103.79 303.21,-113.79 306.71,-103.79 299.71,-103.79"/>
</g>
<!-- VersionModule -->
<g id="node4" class="node">
<title>VersionModule</title>
<polygon fill="#8dd3c7" stroke="black" points="259.88,-84.8 256.88,-88.8 235.88,-88.8 232.88,-84.8 156.12,-84.8 156.12,-48.8 259.88,-48.8 259.88,-84.8"/>
<text text-anchor="middle" x="208" y="-62.6" font-family="Times,serif" font-size="14.00">VersionModule</text>
</g>
<!-- VersionModule&#45;&gt;WelcomeModule -->
<g id="edge3" class="edge">
<title>VersionModule&#45;&gt;WelcomeModule</title>
<path fill="none" stroke="black" d="M237.67,-84.91C237.67,-84.91 237.67,-103.79 237.67,-103.79"/>
<polygon fill="black" stroke="black" points="234.17,-103.79 237.67,-113.79 241.17,-103.79 234.17,-103.79"/>
</g>
<!-- WelcomeRouting -->
<g id="node5" class="node">
<title>WelcomeRouting</title>
<polygon fill="#8dd3c7" stroke="black" points="138.25,-84.8 135.25,-88.8 114.25,-88.8 111.25,-84.8 23.75,-84.8 23.75,-48.8 138.25,-48.8 138.25,-84.8"/>
<text text-anchor="middle" x="81" y="-62.6" font-family="Times,serif" font-size="14.00">WelcomeRouting</text>
</g>
<!-- WelcomeRouting&#45;&gt;WelcomeModule -->
<g id="edge4" class="edge">
<title>WelcomeRouting&#45;&gt;WelcomeModule</title>
<path fill="none" stroke="black" d="M81,-84.91C81,-104.14 81,-131.8 81,-131.8 81,-131.8 205.21,-131.8 205.21,-131.8"/>
<polygon fill="black" stroke="black" points="205.21,-135.3 215.21,-131.8 205.21,-128.3 205.21,-135.3"/>
</g>
</g>
</svg>
