<?xml version="1.0" encoding="UTF-8" standalone="no"?>
<!DOCTYPE svg PUBLIC "-//W3C//DTD SVG 1.1//EN"
 "http://www.w3.org/Graphics/SVG/1.1/DTD/svg11.dtd">
<!-- Generated by graphviz version 5.0.0 (20220707.1540)
 -->
<!-- Title: dependencies Pages: 1 -->
<svg width="915pt" height="247pt"
 viewBox="0.00 0.00 915.00 246.80" xmlns="http://www.w3.org/2000/svg" xmlns:xlink="http://www.w3.org/1999/xlink">
<g id="graph0" class="graph" transform="scale(1 1) rotate(0) translate(4 242.8)">
<title>dependencies</title>
<polygon fill="white" stroke="transparent" points="-4,4 -4,-242.8 911,-242.8 911,4 -4,4"/>
<text text-anchor="middle" x="453.5" y="-8.2" font-family="sans-serif" font-size="14.00">dependencies</text>
<g id="clust1" class="cluster">
<title>cluster_ChatsModule</title>
<polygon fill="none" stroke="black" stroke-dasharray="1,5" points="8,-32.8 8,-230.8 899,-230.8 899,-32.8 8,-32.8"/>
</g>
<g id="clust3" class="cluster">
<title>cluster_ChatsModule_imports</title>
<polygon fill="none" stroke="black" points="16,-40.8 16,-92.8 891,-92.8 891,-40.8 16,-40.8"/>
</g>
<g id="clust4" class="cluster">
<title>cluster_ChatsModule_exports</title>
<polygon fill="none" stroke="black" points="363,-170.8 363,-222.8 573,-222.8 573,-170.8 363,-170.8"/>
</g>
<!-- ChatSearchComponent -->
<g id="node1" class="node">
<title>ChatSearchComponent</title>
<polygon fill="#8dd3c7" stroke="black" points="882.86,-84.8 879.86,-88.8 858.86,-88.8 855.86,-84.8 737.14,-84.8 737.14,-48.8 882.86,-48.8 882.86,-84.8"/>
<text text-anchor="middle" x="810" y="-62.6" font-family="Times,serif" font-size="14.00">ChatSearchComponent</text>
</g>
<!-- ChatsModule -->
<g id="node6" class="node">
<title>ChatsModule</title>
<polygon fill="#8dd3c7" stroke="black" points="513.94,-149.8 510.94,-153.8 489.94,-153.8 486.94,-149.8 422.06,-149.8 422.06,-113.8 513.94,-113.8 513.94,-149.8"/>
<text text-anchor="middle" x="468" y="-127.6" font-family="Times,serif" font-size="14.00">ChatsModule</text>
</g>
<!-- ChatSearchComponent&#45;&gt;ChatsModule -->
<g id="edge1" class="edge">
<title>ChatSearchComponent&#45;&gt;ChatsModule</title>
<path fill="none" stroke="black" d="M810,-85.08C810,-106.12 810,-137.8 810,-137.8 810,-137.8 523.77,-137.8 523.77,-137.8"/>
<polygon fill="black" stroke="black" points="523.77,-134.3 513.77,-137.8 523.77,-141.3 523.77,-134.3"/>
</g>
<!-- ChatsDemoComponent -->
<g id="node2" class="node">
<title>ChatsDemoComponent</title>
<polygon fill="#8dd3c7" stroke="black" points="718.94,-84.8 715.94,-88.8 694.94,-88.8 691.94,-84.8 571.06,-84.8 571.06,-48.8 718.94,-48.8 718.94,-84.8"/>
<text text-anchor="middle" x="645" y="-62.6" font-family="Times,serif" font-size="14.00">ChatsDemoComponent</text>
</g>
<!-- ChatsDemoComponent&#45;&gt;ChatsModule -->
<g id="edge2" class="edge">
<title>ChatsDemoComponent&#45;&gt;ChatsModule</title>
<path fill="none" stroke="black" d="M645,-84.82C645,-102.17 645,-125.8 645,-125.8 645,-125.8 524.04,-125.8 524.04,-125.8"/>
<polygon fill="black" stroke="black" points="524.04,-122.3 514.04,-125.8 524.04,-129.3 524.04,-122.3"/>
</g>
<!-- MessageBubbleComponent -->
<g id="node3" class="node">
<title>MessageBubbleComponent</title>
<polygon fill="#8dd3c7" stroke="black" points="553.26,-84.8 550.26,-88.8 529.26,-88.8 526.26,-84.8 382.74,-84.8 382.74,-48.8 553.26,-48.8 553.26,-84.8"/>
<text text-anchor="middle" x="468" y="-62.6" font-family="Times,serif" font-size="14.00">MessageBubbleComponent</text>
</g>
<!-- MessageBubbleComponent&#45;&gt;ChatsModule -->
<g id="edge3" class="edge">
<title>MessageBubbleComponent&#45;&gt;ChatsModule</title>
<path fill="none" stroke="black" d="M468,-84.91C468,-84.91 468,-103.79 468,-103.79"/>
<polygon fill="black" stroke="black" points="464.5,-103.79 468,-113.79 471.5,-103.79 464.5,-103.79"/>
</g>
<!-- MessagesContainerComponent -->
<g id="node4" class="node">
<title>MessagesContainerComponent</title>
<polygon fill="#8dd3c7" stroke="black" points="364.47,-84.8 361.47,-88.8 340.47,-88.8 337.47,-84.8 173.53,-84.8 173.53,-48.8 364.47,-48.8 364.47,-84.8"/>
<text text-anchor="middle" x="269" y="-62.6" font-family="Times,serif" font-size="14.00">MessagesContainerComponent</text>
</g>
<!-- MessagesContainerComponent&#45;&gt;ChatsModule -->
<g id="edge4" class="edge">
<title>MessagesContainerComponent&#45;&gt;ChatsModule</title>
<path fill="none" stroke="black" d="M269,-84.82C269,-102.17 269,-125.8 269,-125.8 269,-125.8 411.85,-125.8 411.85,-125.8"/>
<polygon fill="black" stroke="black" points="411.85,-129.3 421.85,-125.8 411.85,-122.3 411.85,-129.3"/>
</g>
<!-- TimeBarComponent -->
<g id="node5" class="node">
<title>TimeBarComponent</title>
<polygon fill="#8dd3c7" stroke="black" points="155.59,-84.8 152.59,-88.8 131.59,-88.8 128.59,-84.8 24.41,-84.8 24.41,-48.8 155.59,-48.8 155.59,-84.8"/>
<text text-anchor="middle" x="90" y="-62.6" font-family="Times,serif" font-size="14.00">TimeBarComponent</text>
</g>
<!-- TimeBarComponent&#45;&gt;ChatsModule -->
<g id="edge5" class="edge">
<title>TimeBarComponent&#45;&gt;ChatsModule</title>
<path fill="none" stroke="black" d="M90,-85.08C90,-106.12 90,-137.8 90,-137.8 90,-137.8 412.03,-137.8 412.03,-137.8"/>
<polygon fill="black" stroke="black" points="412.03,-141.3 422.03,-137.8 412.03,-134.3 412.03,-141.3"/>
</g>
<!-- MessagesContainerComponent  -->
<g id="node7" class="node">
<title>MessagesContainerComponent </title>
<polygon fill="#fb8072" stroke="black" points="565.47,-214.8 370.53,-214.8 370.53,-178.8 565.47,-178.8 565.47,-214.8"/>
<text text-anchor="middle" x="468" y="-192.6" font-family="Times,serif" font-size="14.00">MessagesContainerComponent </text>
</g>
<!-- ChatsModule&#45;&gt;MessagesContainerComponent  -->
<g id="edge6" class="edge">
<title>ChatsModule&#45;&gt;MessagesContainerComponent </title>
<path fill="none" stroke="black" stroke-dasharray="5,2" d="M468,-149.91C468,-149.91 468,-168.79 468,-168.79"/>
<polygon fill="black" stroke="black" points="464.5,-168.79 468,-178.79 471.5,-168.79 464.5,-168.79"/>
</g>
</g>
</svg>
