<?xml version="1.0" encoding="utf-8"?>
<!-- Generator: Adobe Illustrator 27.4.1, SVG Export Plug-In . SVG Version: 6.00 Build 0)  -->
<svg version="1.1" id="Layer_1" xmlns="http://www.w3.org/2000/svg" xmlns:xlink="http://www.w3.org/1999/xlink" x="0px" y="0px"
	 viewBox="0 0 254 254" style="enable-background:new 0 0 254 254;" xml:space="preserve">
<style type="text/css">
	.st0{fill:#426530;}
	.st1{fill:#FFFFFF;}
</style>
<path class="st0" d="M127,0C56.9,0,0,56.9,0,127s56.9,127,127,127s127-56.9,127-127S197.1,0,127,0z M201.2,137.9
	c-2.8,2.8-6.7,4.5-10.9,4.5h-47.8v47.8c0,8.5-6.9,15.5-15.5,15.5s-15.5-6.9-15.5-15.5v-47.8H63.8c-8.5,0-15.5-6.9-15.5-15.5
	c0-8.5,6.9-15.5,15.5-15.5h47.8V63.8c0-8.5,6.9-15.5,15.5-15.5c4.3,0,8.1,1.7,10.9,4.5c2.8,2.8,4.5,6.7,4.5,10.9v47.8h47.8
	c8.5,0,15.5,6.9,15.5,15.5C205.7,131.3,204,135.1,201.2,137.9z"/>
<path class="st1" d="M205.7,127c0,4.3-1.7,8.1-4.5,10.9c-2.8,2.8-6.7,4.5-10.9,4.5h-47.8v47.8c0,8.5-6.9,15.5-15.5,15.5
	s-15.5-6.9-15.5-15.5v-47.8H63.8c-8.5,0-15.5-6.9-15.5-15.5c0-8.5,6.9-15.5,15.5-15.5h47.8V63.8c0-8.5,6.9-15.5,15.5-15.5
	c4.3,0,8.1,1.7,10.9,4.5c2.8,2.8,4.5,6.7,4.5,10.9v47.8h47.8C198.8,111.5,205.7,118.5,205.7,127z"/>
</svg>
