<?xml version="1.0" encoding="UTF-8" standalone="no"?>
<!DOCTYPE svg PUBLIC "-//W3C//DTD SVG 1.1//EN"
 "http://www.w3.org/Graphics/SVG/1.1/DTD/svg11.dtd">
<!-- Generated by graphviz version 5.0.0 (20220707.1540)
 -->
<!-- Title: dependencies Pages: 1 -->
<svg width="344pt" height="247pt"
 viewBox="0.00 0.00 344.00 246.80" xmlns="http://www.w3.org/2000/svg" xmlns:xlink="http://www.w3.org/1999/xlink">
<g id="graph0" class="graph" transform="scale(1 1) rotate(0) translate(4 242.8)">
<title>dependencies</title>
<polygon fill="white" stroke="transparent" points="-4,4 -4,-242.8 340,-242.8 340,4 -4,4"/>
<text text-anchor="middle" x="168" y="-8.2" font-family="sans-serif" font-size="14.00">dependencies</text>
<g id="clust1" class="cluster">
<title>cluster_AddressDetailsModule</title>
<polygon fill="none" stroke="black" stroke-dasharray="1,5" points="8,-32.8 8,-230.8 328,-230.8 328,-32.8 8,-32.8"/>
</g>
<g id="clust2" class="cluster">
<title>cluster_AddressDetailsModule_declarations</title>
<polygon fill="none" stroke="black" points="138,-40.8 138,-92.8 320,-92.8 320,-40.8 138,-40.8"/>
</g>
<g id="clust4" class="cluster">
<title>cluster_AddressDetailsModule_imports</title>
<polygon fill="none" stroke="black" points="16,-40.8 16,-92.8 130,-92.8 130,-40.8 16,-40.8"/>
</g>
<g id="clust5" class="cluster">
<title>cluster_AddressDetailsModule_exports</title>
<polygon fill="none" stroke="black" points="75,-170.8 75,-222.8 261,-222.8 261,-170.8 75,-170.8"/>
</g>
<!-- AddressDetailsComponent -->
<g id="node1" class="node">
<title>AddressDetailsComponent</title>
<polygon fill="#ffffb3" stroke="black" points="312.37,-84.8 145.63,-84.8 145.63,-48.8 312.37,-48.8 312.37,-84.8"/>
<text text-anchor="middle" x="229" y="-62.6" font-family="Times,serif" font-size="14.00">AddressDetailsComponent</text>
</g>
<!-- AddressDetailsModule -->
<g id="node2" class="node">
<title>AddressDetailsModule</title>
<polygon fill="#8dd3c7" stroke="black" points="240.59,-149.8 237.59,-153.8 216.59,-153.8 213.59,-149.8 95.41,-149.8 95.41,-113.8 240.59,-113.8 240.59,-149.8"/>
<text text-anchor="middle" x="168" y="-127.6" font-family="Times,serif" font-size="14.00">AddressDetailsModule</text>
</g>
<!-- AddressDetailsComponent&#45;&gt;AddressDetailsModule -->
<g id="edge1" class="edge">
<title>AddressDetailsComponent&#45;&gt;AddressDetailsModule</title>
<path fill="none" stroke="black" d="M193.06,-84.91C193.06,-84.91 193.06,-103.79 193.06,-103.79"/>
<polygon fill="black" stroke="black" points="189.56,-103.79 193.06,-113.79 196.56,-103.79 189.56,-103.79"/>
</g>
<!-- AddressDetailsComponent  -->
<g id="node4" class="node">
<title>AddressDetailsComponent </title>
<polygon fill="#fb8072" stroke="black" points="253.37,-214.8 82.63,-214.8 82.63,-178.8 253.37,-178.8 253.37,-214.8"/>
<text text-anchor="middle" x="168" y="-192.6" font-family="Times,serif" font-size="14.00">AddressDetailsComponent </text>
</g>
<!-- AddressDetailsModule&#45;&gt;AddressDetailsComponent  -->
<g id="edge3" class="edge">
<title>AddressDetailsModule&#45;&gt;AddressDetailsComponent </title>
<path fill="none" stroke="black" stroke-dasharray="5,2" d="M168,-149.91C168,-149.91 168,-168.79 168,-168.79"/>
<polygon fill="black" stroke="black" points="164.5,-168.79 168,-178.79 171.5,-168.79 164.5,-168.79"/>
</g>
<!-- ProfileModule -->
<g id="node3" class="node">
<title>ProfileModule</title>
<polygon fill="#8dd3c7" stroke="black" points="121.66,-84.8 118.66,-88.8 97.66,-88.8 94.66,-84.8 24.34,-84.8 24.34,-48.8 121.66,-48.8 121.66,-84.8"/>
<text text-anchor="middle" x="73" y="-62.6" font-family="Times,serif" font-size="14.00">ProfileModule</text>
</g>
<!-- ProfileModule&#45;&gt;AddressDetailsModule -->
<g id="edge2" class="edge">
<title>ProfileModule&#45;&gt;AddressDetailsModule</title>
<path fill="none" stroke="black" d="M108.64,-84.91C108.64,-84.91 108.64,-103.79 108.64,-103.79"/>
<polygon fill="black" stroke="black" points="105.14,-103.79 108.64,-113.79 112.14,-103.79 105.14,-103.79"/>
</g>
</g>
</svg>
