<?xml version="1.0" encoding="UTF-8" standalone="no"?>
<!DOCTYPE svg PUBLIC "-//W3C//DTD SVG 1.1//EN"
 "http://www.w3.org/Graphics/SVG/1.1/DTD/svg11.dtd">
<!-- Generated by graphviz version 5.0.0 (20220707.1540)
 -->
<!-- Title: dependencies Pages: 1 -->
<svg width="410pt" height="247pt"
 viewBox="0.00 0.00 410.00 246.80" xmlns="http://www.w3.org/2000/svg" xmlns:xlink="http://www.w3.org/1999/xlink">
<g id="graph0" class="graph" transform="scale(1 1) rotate(0) translate(4 242.8)">
<title>dependencies</title>
<polygon fill="white" stroke="transparent" points="-4,4 -4,-242.8 406,-242.8 406,4 -4,4"/>
<text text-anchor="middle" x="201" y="-8.2" font-family="sans-serif" font-size="14.00">dependencies</text>
<g id="clust1" class="cluster">
<title>cluster_AppChatsUiModule</title>
<polygon fill="none" stroke="black" stroke-dasharray="1,5" points="8,-32.8 8,-230.8 394,-230.8 394,-32.8 8,-32.8"/>
</g>
<g id="clust3" class="cluster">
<title>cluster_AppChatsUiModule_imports</title>
<polygon fill="none" stroke="black" points="16,-40.8 16,-92.8 386,-92.8 386,-40.8 16,-40.8"/>
</g>
<g id="clust4" class="cluster">
<title>cluster_AppChatsUiModule_exports</title>
<polygon fill="none" stroke="black" points="128,-170.8 128,-222.8 294,-222.8 294,-170.8 128,-170.8"/>
</g>
<!-- ChatSearchComponent -->
<g id="node1" class="node">
<title>ChatSearchComponent</title>
<polygon fill="#8dd3c7" stroke="black" points="377.86,-84.8 374.86,-88.8 353.86,-88.8 350.86,-84.8 232.14,-84.8 232.14,-48.8 377.86,-48.8 377.86,-84.8"/>
<text text-anchor="middle" x="305" y="-62.6" font-family="Times,serif" font-size="14.00">ChatSearchComponent</text>
</g>
<!-- AppChatsUiModule -->
<g id="node3" class="node">
<title>AppChatsUiModule</title>
<polygon fill="#8dd3c7" stroke="black" points="275.55,-149.8 272.55,-153.8 251.55,-153.8 248.55,-149.8 146.45,-149.8 146.45,-113.8 275.55,-113.8 275.55,-149.8"/>
<text text-anchor="middle" x="211" y="-127.6" font-family="Times,serif" font-size="14.00">AppChatsUiModule</text>
</g>
<!-- ChatSearchComponent&#45;&gt;AppChatsUiModule -->
<g id="edge1" class="edge">
<title>ChatSearchComponent&#45;&gt;AppChatsUiModule</title>
<path fill="none" stroke="black" d="M253.92,-84.91C253.92,-84.91 253.92,-103.79 253.92,-103.79"/>
<polygon fill="black" stroke="black" points="250.42,-103.79 253.92,-113.79 257.42,-103.79 250.42,-103.79"/>
</g>
<!-- MessagesContainerComponent -->
<g id="node2" class="node">
<title>MessagesContainerComponent</title>
<polygon fill="#8dd3c7" stroke="black" points="214.47,-84.8 211.47,-88.8 190.47,-88.8 187.47,-84.8 23.53,-84.8 23.53,-48.8 214.47,-48.8 214.47,-84.8"/>
<text text-anchor="middle" x="119" y="-62.6" font-family="Times,serif" font-size="14.00">MessagesContainerComponent</text>
</g>
<!-- MessagesContainerComponent&#45;&gt;AppChatsUiModule -->
<g id="edge2" class="edge">
<title>MessagesContainerComponent&#45;&gt;AppChatsUiModule</title>
<path fill="none" stroke="black" d="M180.36,-84.91C180.36,-84.91 180.36,-103.79 180.36,-103.79"/>
<polygon fill="black" stroke="black" points="176.86,-103.79 180.36,-113.79 183.86,-103.79 176.86,-103.79"/>
</g>
<!-- ChatSearchComponent  -->
<g id="node4" class="node">
<title>ChatSearchComponent </title>
<polygon fill="#fb8072" stroke="black" points="285.86,-214.8 136.14,-214.8 136.14,-178.8 285.86,-178.8 285.86,-214.8"/>
<text text-anchor="middle" x="211" y="-192.6" font-family="Times,serif" font-size="14.00">ChatSearchComponent </text>
</g>
<!-- AppChatsUiModule&#45;&gt;ChatSearchComponent  -->
<g id="edge3" class="edge">
<title>AppChatsUiModule&#45;&gt;ChatSearchComponent </title>
<path fill="none" stroke="black" stroke-dasharray="5,2" d="M211,-149.91C211,-149.91 211,-168.79 211,-168.79"/>
<polygon fill="black" stroke="black" points="207.5,-168.79 211,-178.79 214.5,-168.79 207.5,-168.79"/>
</g>
</g>
</svg>
