<?xml version="1.0" encoding="UTF-8"?><svg xmlns="http://www.w3.org/2000/svg" xmlns:xlink="http://www.w3.org/1999/xlink" viewBox="0 0 100 100"><defs><style>.cls-1{fill:url(#radial-gradient);}.cls-1,.cls-2,.cls-3{stroke-miterlimit:10;}.cls-1,.cls-4{stroke:#231f20;}.cls-5{fill:#f0f7ee;}.cls-6{fill:#111a0f;}.cls-7{stroke:#eff7ee;}.cls-7,.cls-8{fill:#eff7ee;}.cls-9,.cls-10,.cls-2,.cls-11,.cls-3{stroke:#fff;}.cls-9,.cls-10,.cls-11,.cls-12{stroke-linecap:round;}.cls-9,.cls-11,.cls-4,.cls-13,.cls-12{fill:none;}.cls-14{clip-path:url(#clippath-1);}.cls-10{fill:url(#linear-gradient);}.cls-2{fill:url(#radial-gradient-2);}.cls-11{stroke-width:.4px;}.cls-15{clip-path:url(#clippath);}.cls-3{fill:url(#linear-gradient-2);}.cls-16{fill:url(#linear-gradient-3);}.cls-12{stroke:#111a0f;stroke-width:2.8px;}.cls-17{fill:url(#linear-gradient-4);}</style><clipPath id="clippath"><rect class="cls-13" x="-113.72" y="0" width="100" height="100" rx="43.14" ry="43.14"/></clipPath><linearGradient id="linear-gradient" x1="-15.8" y1="407.89" x2="-15.8" y2="348.18" gradientTransform="translate(0 442.73) scale(1 -1)" gradientUnits="userSpaceOnUse"><stop offset="0" stop-color="#71ad46"/><stop offset=".17" stop-color="#71ad46"/><stop offset=".2" stop-color="#199a48"/><stop offset=".23" stop-color="#165e30"/><stop offset=".48" stop-color="#1b3b1c"/><stop offset=".9" stop-color="#111a0f"/><stop offset="1" stop-color="#010101"/></linearGradient><clipPath id="clippath-1"><path class="cls-13" d="m48.67,1.29h3.37c25.81,0,46.02,21.39,46.02,47.2v2.67c0,25.81-20.92,46.73-46.73,46.73h-2.67C22.86,97.89,1.94,76.97,1.94,51.16v-2.67C1.94,22.68,22.87,1.29,48.67,1.29Z"/></clipPath><radialGradient id="radial-gradient" cx="50" cy="69.36" fx="50" fy="69.36" r="31.66" gradientUnits="userSpaceOnUse"><stop offset="0" stop-color="#d14b5c"/><stop offset="0" stop-color="#c5314b"/><stop offset=".58" stop-color="#edaf4a"/><stop offset=".87" stop-color="#fab13c"/><stop offset="1" stop-color="#fde7c1"/></radialGradient><radialGradient id="radial-gradient-2" cx="50" cy="69.69" fx="50" fy="69.69" r="30.89" xlink:href="#radial-gradient"/><linearGradient id="linear-gradient-2" x1="50" y1="382.06" x2="50" y2="345.14" gradientTransform="translate(0 442.73) scale(1 -1)" gradientUnits="userSpaceOnUse"><stop offset="0" stop-color="#71ad46"/><stop offset=".13" stop-color="#71ad46"/><stop offset=".46" stop-color="#165e30"/><stop offset="1" stop-color="#010101"/></linearGradient><linearGradient id="linear-gradient-3" x1="96.18" y1="407.47" x2="96.18" y2="350.09" xlink:href="#linear-gradient-2"/><linearGradient id="linear-gradient-4" x1="185.52" y1="407.61" x2="185.52" y2="350.22" gradientTransform="translate(189.28 442.73) rotate(-180)" xlink:href="#linear-gradient-2"/></defs><g id="Layer_1"><g class="cls-15"><path class="cls-10" d="m-52.04,98.14L-15.8,35.54l36.23,62.61H-52.04Z"/></g></g><g id="Layer_2"><g class="cls-14"><circle class="cls-7" cx="50" cy="49.54" r="48.06"/><circle class="cls-1" cx="50" cy="69.36" r="31.66"/><circle class="cls-2" cx="50" cy="69.69" r="30.89"/><path class="cls-3" d="m30.05,98.15l19.95-37.13,19.95,37.13H30.05Z"/><path class="cls-16" d="m61.48,95.95l34.58-60.02,34.83,60.18-69.41-.15Z"/><path class="cls-17" d="m-30.95,95.96L3.88,35.78l34.58,60.02-69.41.15Z"/><path class="cls-11" d="m34.31,88.94l7.41,12.8-72.47-5.46"/><path class="cls-11" d="m130.89,96.1l-72.47,5.46,7.41-12.8"/><path class="cls-9" d="m-30.95,95.96L3.88,35.78l30.69,53.03"/><path class="cls-9" d="m65.37,88.95l30.69-53.03,34.83,60.18"/><path class="cls-6" d="m29.13,26.49c-.36-.42-.99-.48-1.41-.12-.42.36-.48.99-.12,1.41l1.53-1.29Zm18.19,22.87c-1.59,1.33-1.8,3.7-.46,5.29,1.33,1.59,3.7,1.8,5.29.46,1.59-1.33,1.8-3.7.46-5.29-1.33-1.59-3.7-1.8-5.29-.46Zm-19.73-21.58l21.45,25.57,1.53-1.29-21.45-25.57-1.53,1.29Z"/><line class="cls-12" x1="49.74" y1="52.06" x2="49.74" y2="13.57"/><line class="cls-8" x1="79.69" y1="62.94" x2="80.94" y2="60.82"/><polygon class="cls-5" points="79.7 63.18 79.6 62.81 80.96 60.54 81.05 60.89 79.7 63.18"/><line class="cls-8" x1="20.31" y1="62.94" x2="19.06" y2="60.82"/><polygon class="cls-5" points="20.3 63.18 20.4 62.81 19.04 60.54 18.95 60.89 20.3 63.18"/></g><ellipse class="cls-4" cx="50" cy="49.54" rx="48.06" ry="48.11"/></g></svg>