<svg width="144" height="144" viewBox="0 0 144 144" fill="none" xmlns="http://www.w3.org/2000/svg">
<g clip-path="url(#clip0_4_21)">
<rect width="144" height="144" rx="70" fill="#EDFEF1" style="mix-blend-mode:multiply"/>
<path d="M120 97C120 124.614 97.6142 147 70 147C42.3858 147 20 124.614 20 97C20 69.3858 42.3858 47 70 47C97.6142 47 120 69.3858 120 97Z" fill="url(#paint0_radial_4_21)" stroke="black"/>
<path d="M42.1073 143.408L72 87.7859L101.893 143.408H42.1073Z" fill="url(#paint1_linear_4_21)" stroke="white" stroke-width="0.5"/>
<path d="M-52.1579 141.35L2.30264 51.1823L54.4888 141.35H-52.1579Z" fill="url(#paint2_linear_4_21)" stroke="white"/>
<path d="M88.823 141.322L141 51.1705L193.177 141.322H88.823Z" fill="url(#paint3_linear_4_21)" stroke="white" stroke-linecap="round"/>
<path d="M39.0097 32.7336C38.4772 32.099 37.5311 32.0162 36.8964 32.5487C36.2618 33.0812 36.1791 34.0273 36.7116 34.662L39.0097 32.7336ZM64.8577 65.8716C61.4731 68.7117 61.0316 73.7577 63.8717 77.1423C66.7117 80.5269 71.7577 80.9684 75.1423 78.1284C78.5269 75.2883 78.9684 70.2423 76.1284 66.8577C73.2883 63.4731 68.2423 63.0316 64.8577 65.8716ZM36.7116 34.662L68.8509 72.9642L71.1491 71.0358L39.0097 32.7336L36.7116 34.662Z" fill="#051401"/>
<line x1="68.5" y1="70.5" x2="68.5" y2="13.5" stroke="#051401" stroke-width="3" stroke-linecap="round"/>
<path d="M143.5 72C143.5 111.488 111.488 143.5 72 143.5C32.5116 143.5 0.5 111.488 0.5 72C0.5 32.5116 32.5116 0.5 72 0.5C111.488 0.5 143.5 32.5116 143.5 72Z" stroke="black"/>
</g>
<rect x="0.5" y="0.5" width="143" height="143" rx="69.5" stroke="black"/>
<defs>
<radialGradient id="paint0_radial_4_21" cx="0" cy="0" r="1" gradientUnits="userSpaceOnUse" gradientTransform="translate(70 97) rotate(90) scale(50)">
<stop stop-color="#D1495B"/>
<stop offset="0.0001" stop-color="#D1495B"/>
<stop offset="0.578125" stop-color="#EDAE49"/>
<stop offset="0.885417" stop-color="#FAB13C"/>
<stop offset="1" stop-color="white"/>
</radialGradient>
<linearGradient id="paint1_linear_4_21" x1="72" y1="87.2578" x2="72" y2="142.561" gradientUnits="userSpaceOnUse">
<stop offset="0.015625" stop-color="#D9D9D9"/>
<stop offset="0.078125" stop-color="#70AD47"/>
<stop offset="0.177083" stop-color="#139A43"/>
<stop offset="0.244792" stop-color="#0B5D1E"/>
<stop offset="0.713542" stop-color="#053B06"/>
<stop offset="0.864583" stop-color="#051401"/>
<stop offset="1"/>
</linearGradient>
<linearGradient id="paint2_linear_4_21" x1="-2.58775e-05" y1="50.2" x2="-2.58775e-05" y2="143.111" gradientUnits="userSpaceOnUse">
<stop stop-color="#ACD392"/>
<stop offset="0.0729167" stop-color="#70AD47"/>
<stop offset="0.265625" stop-color="#139A43"/>
<stop offset="0.34375" stop-color="#0B5D1E"/>
<stop offset="0.630208" stop-color="#053B06"/>
<stop offset="0.817708" stop-color="#051401"/>
<stop offset="1"/>
</linearGradient>
<linearGradient id="paint3_linear_4_21" x1="141" y1="50.1724" x2="141" y2="136.144" gradientUnits="userSpaceOnUse">
<stop stop-color="#70AD47"/>
<stop offset="0.166667" stop-color="#70AD47"/>
<stop offset="0.197917" stop-color="#139A43"/>
<stop offset="0.229167" stop-color="#0B5D1E"/>
<stop offset="0.484375" stop-color="#053B06"/>
<stop offset="0.895833" stop-color="#051401"/>
<stop offset="1"/>
</linearGradient>
<clipPath id="clip0_4_21">
<rect width="144" height="144" rx="70" fill="white"/>
</clipPath>
</defs>
</svg>
