<?xml version="1.0" encoding="UTF-8" standalone="no"?>
<!DOCTYPE svg PUBLIC "-//W3C//DTD SVG 1.1//EN"
 "http://www.w3.org/Graphics/SVG/1.1/DTD/svg11.dtd">
<!-- Generated by graphviz version 5.0.0 (20220707.1540)
 -->
<!-- Title: dependencies Pages: 1 -->
<svg width="346pt" height="247pt"
 viewBox="0.00 0.00 346.00 246.80" xmlns="http://www.w3.org/2000/svg" xmlns:xlink="http://www.w3.org/1999/xlink">
<g id="graph0" class="graph" transform="scale(1 1) rotate(0) translate(4 242.8)">
<title>dependencies</title>
<polygon fill="white" stroke="transparent" points="-4,4 -4,-242.8 342,-242.8 342,4 -4,4"/>
<text text-anchor="middle" x="169" y="-8.2" font-family="sans-serif" font-size="14.00">dependencies</text>
<g id="clust1" class="cluster">
<title>cluster_AccountDetailsModule</title>
<polygon fill="none" stroke="black" stroke-dasharray="1,5" points="8,-32.8 8,-230.8 330,-230.8 330,-32.8 8,-32.8"/>
</g>
<g id="clust2" class="cluster">
<title>cluster_AccountDetailsModule_declarations</title>
<polygon fill="none" stroke="black" points="138,-40.8 138,-92.8 322,-92.8 322,-40.8 138,-40.8"/>
</g>
<g id="clust4" class="cluster">
<title>cluster_AccountDetailsModule_imports</title>
<polygon fill="none" stroke="black" points="16,-40.8 16,-92.8 130,-92.8 130,-40.8 16,-40.8"/>
</g>
<g id="clust5" class="cluster">
<title>cluster_AccountDetailsModule_exports</title>
<polygon fill="none" stroke="black" points="75,-170.8 75,-222.8 263,-222.8 263,-170.8 75,-170.8"/>
</g>
<!-- AccountDetailsComponent -->
<g id="node1" class="node">
<title>AccountDetailsComponent</title>
<polygon fill="#ffffb3" stroke="black" points="314.41,-84.8 145.59,-84.8 145.59,-48.8 314.41,-48.8 314.41,-84.8"/>
<text text-anchor="middle" x="230" y="-62.6" font-family="Times,serif" font-size="14.00">AccountDetailsComponent</text>
</g>
<!-- AccountDetailsModule -->
<g id="node2" class="node">
<title>AccountDetailsModule</title>
<polygon fill="#8dd3c7" stroke="black" points="242.14,-149.8 239.14,-153.8 218.14,-153.8 215.14,-149.8 95.86,-149.8 95.86,-113.8 242.14,-113.8 242.14,-149.8"/>
<text text-anchor="middle" x="169" y="-127.6" font-family="Times,serif" font-size="14.00">AccountDetailsModule</text>
</g>
<!-- AccountDetailsComponent&#45;&gt;AccountDetailsModule -->
<g id="edge1" class="edge">
<title>AccountDetailsComponent&#45;&gt;AccountDetailsModule</title>
<path fill="none" stroke="black" d="M194.06,-84.91C194.06,-84.91 194.06,-103.79 194.06,-103.79"/>
<polygon fill="black" stroke="black" points="190.56,-103.79 194.06,-113.79 197.56,-103.79 190.56,-103.79"/>
</g>
<!-- AccountDetailsComponent  -->
<g id="node4" class="node">
<title>AccountDetailsComponent </title>
<polygon fill="#fb8072" stroke="black" points="254.91,-214.8 83.09,-214.8 83.09,-178.8 254.91,-178.8 254.91,-214.8"/>
<text text-anchor="middle" x="169" y="-192.6" font-family="Times,serif" font-size="14.00">AccountDetailsComponent </text>
</g>
<!-- AccountDetailsModule&#45;&gt;AccountDetailsComponent  -->
<g id="edge3" class="edge">
<title>AccountDetailsModule&#45;&gt;AccountDetailsComponent </title>
<path fill="none" stroke="black" stroke-dasharray="5,2" d="M169,-149.91C169,-149.91 169,-168.79 169,-168.79"/>
<polygon fill="black" stroke="black" points="165.5,-168.79 169,-178.79 172.5,-168.79 165.5,-168.79"/>
</g>
<!-- ProfileModule -->
<g id="node3" class="node">
<title>ProfileModule</title>
<polygon fill="#8dd3c7" stroke="black" points="121.66,-84.8 118.66,-88.8 97.66,-88.8 94.66,-84.8 24.34,-84.8 24.34,-48.8 121.66,-48.8 121.66,-84.8"/>
<text text-anchor="middle" x="73" y="-62.6" font-family="Times,serif" font-size="14.00">ProfileModule</text>
</g>
<!-- ProfileModule&#45;&gt;AccountDetailsModule -->
<g id="edge2" class="edge">
<title>ProfileModule&#45;&gt;AccountDetailsModule</title>
<path fill="none" stroke="black" d="M108.76,-84.91C108.76,-84.91 108.76,-103.79 108.76,-103.79"/>
<polygon fill="black" stroke="black" points="105.26,-103.79 108.76,-113.79 112.26,-103.79 105.26,-103.79"/>
</g>
</g>
</svg>
