<?xml version="1.0" encoding="UTF-8" standalone="no"?>
<!DOCTYPE svg PUBLIC "-//W3C//DTD SVG 1.1//EN"
 "http://www.w3.org/Graphics/SVG/1.1/DTD/svg11.dtd">
<!-- Generated by graphviz version 5.0.0 (20220707.1540)
 -->
<!-- Title: dependencies Pages: 1 -->
<svg width="369pt" height="174pt"
 viewBox="0.00 0.00 369.00 173.80" xmlns="http://www.w3.org/2000/svg" xmlns:xlink="http://www.w3.org/1999/xlink">
<g id="graph0" class="graph" transform="scale(1 1) rotate(0) translate(4 169.8)">
<title>dependencies</title>
<polygon fill="white" stroke="transparent" points="-4,4 -4,-169.8 365,-169.8 365,4 -4,4"/>
<text text-anchor="middle" x="180.5" y="-8.2" font-family="sans-serif" font-size="14.00">dependencies</text>
<g id="clust1" class="cluster">
<title>cluster_HomeModule</title>
<polygon fill="none" stroke="black" stroke-dasharray="1,5" points="8,-32.8 8,-157.8 353,-157.8 353,-32.8 8,-32.8"/>
</g>
<g id="clust4" class="cluster">
<title>cluster_HomeModule_imports</title>
<polygon fill="none" stroke="black" points="118,-40.8 118,-92.8 345,-92.8 345,-40.8 118,-40.8"/>
</g>
<g id="clust2" class="cluster">
<title>cluster_HomeModule_declarations</title>
<polygon fill="none" stroke="black" points="16,-40.8 16,-92.8 110,-92.8 110,-40.8 16,-40.8"/>
</g>
<!-- HomePage -->
<g id="node1" class="node">
<title>HomePage</title>
<polygon fill="#ffffb3" stroke="black" points="101.93,-84.8 24.07,-84.8 24.07,-48.8 101.93,-48.8 101.93,-84.8"/>
<text text-anchor="middle" x="63" y="-62.6" font-family="Times,serif" font-size="14.00">HomePage</text>
</g>
<!-- HomeModule -->
<g id="node2" class="node">
<title>HomeModule</title>
<polygon fill="#8dd3c7" stroke="black" points="221.77,-149.8 218.77,-153.8 197.77,-153.8 194.77,-149.8 128.23,-149.8 128.23,-113.8 221.77,-113.8 221.77,-149.8"/>
<text text-anchor="middle" x="175" y="-127.6" font-family="Times,serif" font-size="14.00">HomeModule</text>
</g>
<!-- HomePage&#45;&gt;HomeModule -->
<g id="edge1" class="edge">
<title>HomePage&#45;&gt;HomeModule</title>
<path fill="none" stroke="black" d="M63,-84.91C63,-104.14 63,-131.8 63,-131.8 63,-131.8 118.15,-131.8 118.15,-131.8"/>
<polygon fill="black" stroke="black" points="118.15,-135.3 128.15,-131.8 118.15,-128.3 118.15,-135.3"/>
</g>
<!-- HomeRouting -->
<g id="node3" class="node">
<title>HomeRouting</title>
<polygon fill="#8dd3c7" stroke="black" points="336.83,-84.8 333.83,-88.8 312.83,-88.8 309.83,-84.8 241.17,-84.8 241.17,-48.8 336.83,-48.8 336.83,-84.8"/>
<text text-anchor="middle" x="289" y="-62.6" font-family="Times,serif" font-size="14.00">HomeRouting</text>
</g>
<!-- HomeRouting&#45;&gt;HomeModule -->
<g id="edge2" class="edge">
<title>HomeRouting&#45;&gt;HomeModule</title>
<path fill="none" stroke="black" d="M289,-84.91C289,-104.14 289,-131.8 289,-131.8 289,-131.8 232.03,-131.8 232.03,-131.8"/>
<polygon fill="black" stroke="black" points="232.03,-128.3 222.03,-131.8 232.03,-135.3 232.03,-128.3"/>
</g>
<!-- ProfileModule -->
<g id="node4" class="node">
<title>ProfileModule</title>
<polygon fill="#8dd3c7" stroke="black" points="223.66,-84.8 220.66,-88.8 199.66,-88.8 196.66,-84.8 126.34,-84.8 126.34,-48.8 223.66,-48.8 223.66,-84.8"/>
<text text-anchor="middle" x="175" y="-62.6" font-family="Times,serif" font-size="14.00">ProfileModule</text>
</g>
<!-- ProfileModule&#45;&gt;HomeModule -->
<g id="edge3" class="edge">
<title>ProfileModule&#45;&gt;HomeModule</title>
<path fill="none" stroke="black" d="M175,-84.91C175,-84.91 175,-103.79 175,-103.79"/>
<polygon fill="black" stroke="black" points="171.5,-103.79 175,-113.79 178.5,-103.79 171.5,-103.79"/>
</g>
</g>
</svg>
