<?xml version="1.0" encoding="UTF-8" standalone="no"?>
<!DOCTYPE svg PUBLIC "-//W3C//DTD SVG 1.1//EN"
 "http://www.w3.org/Graphics/SVG/1.1/DTD/svg11.dtd">
<!-- Generated by graphviz version 5.0.0 (20220707.1540)
 -->
<!-- Title: dependencies Pages: 1 -->
<svg width="644pt" height="174pt"
 viewBox="0.00 0.00 644.00 173.80" xmlns="http://www.w3.org/2000/svg" xmlns:xlink="http://www.w3.org/1999/xlink">
<g id="graph0" class="graph" transform="scale(1 1) rotate(0) translate(4 169.8)">
<title>dependencies</title>
<polygon fill="white" stroke="transparent" points="-4,4 -4,-169.8 640,-169.8 640,4 -4,4"/>
<text text-anchor="middle" x="318" y="-8.2" font-family="sans-serif" font-size="14.00">dependencies</text>
<g id="clust1" class="cluster">
<title>cluster_AppChatsFeatureModule</title>
<polygon fill="none" stroke="black" stroke-dasharray="1,5" points="8,-32.8 8,-157.8 628,-157.8 628,-32.8 8,-32.8"/>
</g>
<g id="clust3" class="cluster">
<title>cluster_AppChatsFeatureModule_imports</title>
<polygon fill="none" stroke="black" points="16,-40.8 16,-92.8 620,-92.8 620,-40.8 16,-40.8"/>
</g>
<!-- ChatPageComponent -->
<g id="node1" class="node">
<title>ChatPageComponent</title>
<polygon fill="#8dd3c7" stroke="black" points="612.49,-84.8 609.49,-88.8 588.49,-88.8 585.49,-84.8 477.51,-84.8 477.51,-48.8 612.49,-48.8 612.49,-84.8"/>
<text text-anchor="middle" x="545" y="-62.6" font-family="Times,serif" font-size="14.00">ChatPageComponent</text>
</g>
<!-- AppChatsFeatureModule -->
<g id="node5" class="node">
<title>AppChatsFeatureModule</title>
<polygon fill="#8dd3c7" stroke="black" points="389.53,-149.8 386.53,-153.8 365.53,-153.8 362.53,-149.8 232.47,-149.8 232.47,-113.8 389.53,-113.8 389.53,-149.8"/>
<text text-anchor="middle" x="311" y="-127.6" font-family="Times,serif" font-size="14.00">AppChatsFeatureModule</text>
</g>
<!-- ChatPageComponent&#45;&gt;AppChatsFeatureModule -->
<g id="edge1" class="edge">
<title>ChatPageComponent&#45;&gt;AppChatsFeatureModule</title>
<path fill="none" stroke="black" d="M545,-84.91C545,-104.14 545,-131.8 545,-131.8 545,-131.8 399.57,-131.8 399.57,-131.8"/>
<polygon fill="black" stroke="black" points="399.57,-128.3 389.57,-131.8 399.57,-135.3 399.57,-128.3"/>
</g>
<!-- ChatSearchComponent -->
<g id="node2" class="node">
<title>ChatSearchComponent</title>
<polygon fill="#8dd3c7" stroke="black" points="459.86,-84.8 456.86,-88.8 435.86,-88.8 432.86,-84.8 314.14,-84.8 314.14,-48.8 459.86,-48.8 459.86,-84.8"/>
<text text-anchor="middle" x="387" y="-62.6" font-family="Times,serif" font-size="14.00">ChatSearchComponent</text>
</g>
<!-- ChatSearchComponent&#45;&gt;AppChatsFeatureModule -->
<g id="edge2" class="edge">
<title>ChatSearchComponent&#45;&gt;AppChatsFeatureModule</title>
<path fill="none" stroke="black" d="M351.92,-84.91C351.92,-84.91 351.92,-103.79 351.92,-103.79"/>
<polygon fill="black" stroke="black" points="348.42,-103.79 351.92,-113.79 355.42,-103.79 348.42,-103.79"/>
</g>
<!-- NavbarComponent -->
<g id="node3" class="node">
<title>NavbarComponent</title>
<polygon fill="#8dd3c7" stroke="black" points="296.03,-84.8 293.03,-88.8 272.03,-88.8 269.03,-84.8 173.97,-84.8 173.97,-48.8 296.03,-48.8 296.03,-84.8"/>
<text text-anchor="middle" x="235" y="-62.6" font-family="Times,serif" font-size="14.00">NavbarComponent</text>
</g>
<!-- NavbarComponent&#45;&gt;AppChatsFeatureModule -->
<g id="edge3" class="edge">
<title>NavbarComponent&#45;&gt;AppChatsFeatureModule</title>
<path fill="none" stroke="black" d="M264.25,-84.91C264.25,-84.91 264.25,-103.79 264.25,-103.79"/>
<polygon fill="black" stroke="black" points="260.75,-103.79 264.25,-113.79 267.75,-103.79 260.75,-103.79"/>
</g>
<!-- TimeBarComponent -->
<g id="node4" class="node">
<title>TimeBarComponent</title>
<polygon fill="#8dd3c7" stroke="black" points="155.59,-84.8 152.59,-88.8 131.59,-88.8 128.59,-84.8 24.41,-84.8 24.41,-48.8 155.59,-48.8 155.59,-84.8"/>
<text text-anchor="middle" x="90" y="-62.6" font-family="Times,serif" font-size="14.00">TimeBarComponent</text>
</g>
<!-- TimeBarComponent&#45;&gt;AppChatsFeatureModule -->
<g id="edge4" class="edge">
<title>TimeBarComponent&#45;&gt;AppChatsFeatureModule</title>
<path fill="none" stroke="black" d="M90,-84.91C90,-104.14 90,-131.8 90,-131.8 90,-131.8 222.46,-131.8 222.46,-131.8"/>
<polygon fill="black" stroke="black" points="222.46,-135.3 232.46,-131.8 222.46,-128.3 222.46,-135.3"/>
</g>
</g>
</svg>
