<?xml version="1.0" encoding="UTF-8" standalone="no"?>
<!DOCTYPE svg PUBLIC "-//W3C//DTD SVG 1.1//EN"
 "http://www.w3.org/Graphics/SVG/1.1/DTD/svg11.dtd">
<!-- Generated by graphviz version 5.0.0 (20220707.1540)
 -->
<!-- Title: dependencies Pages: 1 -->
<svg width="342pt" height="247pt"
 viewBox="0.00 0.00 342.00 246.80" xmlns="http://www.w3.org/2000/svg" xmlns:xlink="http://www.w3.org/1999/xlink">
<g id="graph0" class="graph" transform="scale(1 1) rotate(0) translate(4 242.8)">
<title>dependencies</title>
<polygon fill="white" stroke="transparent" points="-4,4 -4,-242.8 338,-242.8 338,4 -4,4"/>
<text text-anchor="middle" x="167" y="-8.2" font-family="sans-serif" font-size="14.00">dependencies</text>
<g id="clust1" class="cluster">
<title>cluster_ProfilesModule</title>
<polygon fill="none" stroke="black" stroke-dasharray="1,5" points="8,-32.8 8,-230.8 326,-230.8 326,-32.8 8,-32.8"/>
</g>
<g id="clust6" class="cluster">
<title>cluster_ProfilesModule_providers</title>
<polygon fill="none" stroke="black" points="16,-40.8 16,-92.8 318,-92.8 318,-40.8 16,-40.8"/>
</g>
<g id="clust4" class="cluster">
<title>cluster_ProfilesModule_exports</title>
<polygon fill="none" stroke="black" points="109,-170.8 109,-222.8 231,-222.8 231,-170.8 109,-170.8"/>
</g>
<!-- ProfilesService  -->
<g id="node1" class="node">
<title>ProfilesService </title>
<polygon fill="#fb8072" stroke="black" points="222.53,-214.8 117.47,-214.8 117.47,-178.8 222.53,-178.8 222.53,-214.8"/>
<text text-anchor="middle" x="170" y="-192.6" font-family="Times,serif" font-size="14.00">ProfilesService </text>
</g>
<!-- ProfilesModule -->
<g id="node2" class="node">
<title>ProfilesModule</title>
<polygon fill="#8dd3c7" stroke="black" points="221.6,-149.8 218.6,-153.8 197.6,-153.8 194.6,-149.8 118.4,-149.8 118.4,-113.8 221.6,-113.8 221.6,-149.8"/>
<text text-anchor="middle" x="170" y="-127.6" font-family="Times,serif" font-size="14.00">ProfilesModule</text>
</g>
<!-- ProfilesModule&#45;&gt;ProfilesService  -->
<g id="edge1" class="edge">
<title>ProfilesModule&#45;&gt;ProfilesService </title>
<path fill="none" stroke="black" stroke-dasharray="5,2" d="M170,-149.91C170,-149.91 170,-168.79 170,-168.79"/>
<polygon fill="black" stroke="black" points="166.5,-168.79 170,-178.79 173.5,-168.79 166.5,-168.79"/>
</g>
<!-- ProfilesSagas -->
<g id="node3" class="node">
<title>ProfilesSagas</title>
<ellipse fill="#fdb462" stroke="black" cx="246" cy="-66.8" rx="63.72" ry="18"/>
<text text-anchor="middle" x="246" y="-62.6" font-family="Times,serif" font-size="14.00">ProfilesSagas</text>
</g>
<!-- ProfilesSagas&#45;&gt;ProfilesModule -->
<g id="edge2" class="edge">
<title>ProfilesSagas&#45;&gt;ProfilesModule</title>
<path fill="none" stroke="black" d="M201.97,-79.95C201.97,-79.95 201.97,-103.49 201.97,-103.49"/>
<polygon fill="black" stroke="black" points="198.47,-103.49 201.97,-113.49 205.47,-103.49 198.47,-103.49"/>
</g>
<!-- ProfilesService -->
<g id="node4" class="node">
<title>ProfilesService</title>
<ellipse fill="#fdb462" stroke="black" cx="94" cy="-66.8" rx="70.07" ry="18"/>
<text text-anchor="middle" x="94" y="-62.6" font-family="Times,serif" font-size="14.00">ProfilesService</text>
</g>
<!-- ProfilesService&#45;&gt;ProfilesModule -->
<g id="edge3" class="edge">
<title>ProfilesService&#45;&gt;ProfilesModule</title>
<path fill="none" stroke="black" d="M141.24,-80.27C141.24,-80.27 141.24,-103.66 141.24,-103.66"/>
<polygon fill="black" stroke="black" points="137.74,-103.66 141.24,-113.66 144.74,-103.66 137.74,-103.66"/>
</g>
</g>
</svg>
