<?xml version="1.0" encoding="UTF-8" standalone="no"?>
<!DOCTYPE svg PUBLIC "-//W3C//DTD SVG 1.1//EN"
 "http://www.w3.org/Graphics/SVG/1.1/DTD/svg11.dtd">
<!-- Generated by graphviz version 5.0.0 (20220707.1540)
 -->
<!-- Title: dependencies Pages: 1 -->
<svg width="404pt" height="174pt"
 viewBox="0.00 0.00 404.00 173.80" xmlns="http://www.w3.org/2000/svg" xmlns:xlink="http://www.w3.org/1999/xlink">
<g id="graph0" class="graph" transform="scale(1 1) rotate(0) translate(4 169.8)">
<title>dependencies</title>
<polygon fill="white" stroke="transparent" points="-4,4 -4,-169.8 400,-169.8 400,4 -4,4"/>
<text text-anchor="middle" x="198" y="-8.2" font-family="sans-serif" font-size="14.00">dependencies</text>
<g id="clust1" class="cluster">
<title>cluster_PrivacyModule</title>
<polygon fill="none" stroke="black" stroke-dasharray="1,5" points="8,-32.8 8,-157.8 388,-157.8 388,-32.8 8,-32.8"/>
</g>
<g id="clust4" class="cluster">
<title>cluster_PrivacyModule_imports</title>
<polygon fill="none" stroke="black" points="126,-40.8 126,-92.8 380,-92.8 380,-40.8 126,-40.8"/>
</g>
<g id="clust2" class="cluster">
<title>cluster_PrivacyModule_declarations</title>
<polygon fill="none" stroke="black" points="16,-40.8 16,-92.8 118,-92.8 118,-40.8 16,-40.8"/>
</g>
<!-- PrivacyPage -->
<g id="node1" class="node">
<title>PrivacyPage</title>
<polygon fill="#ffffb3" stroke="black" points="109.98,-84.8 24.02,-84.8 24.02,-48.8 109.98,-48.8 109.98,-84.8"/>
<text text-anchor="middle" x="67" y="-62.6" font-family="Times,serif" font-size="14.00">PrivacyPage</text>
</g>
<!-- PrivacyModule -->
<g id="node2" class="node">
<title>PrivacyModule</title>
<polygon fill="#8dd3c7" stroke="black" points="237.32,-149.8 234.32,-153.8 213.32,-153.8 210.32,-149.8 134.68,-149.8 134.68,-113.8 237.32,-113.8 237.32,-149.8"/>
<text text-anchor="middle" x="186" y="-127.6" font-family="Times,serif" font-size="14.00">PrivacyModule</text>
</g>
<!-- PrivacyPage&#45;&gt;PrivacyModule -->
<g id="edge1" class="edge">
<title>PrivacyPage&#45;&gt;PrivacyModule</title>
<path fill="none" stroke="black" d="M67,-84.91C67,-104.14 67,-131.8 67,-131.8 67,-131.8 124.5,-131.8 124.5,-131.8"/>
<polygon fill="black" stroke="black" points="124.5,-135.3 134.5,-131.8 124.5,-128.3 124.5,-135.3"/>
</g>
<!-- CopyrightModule -->
<g id="node3" class="node">
<title>CopyrightModule</title>
<polygon fill="#8dd3c7" stroke="black" points="372.33,-84.8 369.33,-88.8 348.33,-88.8 345.33,-84.8 255.67,-84.8 255.67,-48.8 372.33,-48.8 372.33,-84.8"/>
<text text-anchor="middle" x="314" y="-62.6" font-family="Times,serif" font-size="14.00">CopyrightModule</text>
</g>
<!-- CopyrightModule&#45;&gt;PrivacyModule -->
<g id="edge2" class="edge">
<title>CopyrightModule&#45;&gt;PrivacyModule</title>
<path fill="none" stroke="black" d="M314,-84.91C314,-104.14 314,-131.8 314,-131.8 314,-131.8 247.32,-131.8 247.32,-131.8"/>
<polygon fill="black" stroke="black" points="247.33,-128.3 237.32,-131.8 247.32,-135.3 247.33,-128.3"/>
</g>
<!-- PrivacyRouting -->
<g id="node4" class="node">
<title>PrivacyRouting</title>
<polygon fill="#8dd3c7" stroke="black" points="237.88,-84.8 234.88,-88.8 213.88,-88.8 210.88,-84.8 134.12,-84.8 134.12,-48.8 237.88,-48.8 237.88,-84.8"/>
<text text-anchor="middle" x="186" y="-62.6" font-family="Times,serif" font-size="14.00">PrivacyRouting</text>
</g>
<!-- PrivacyRouting&#45;&gt;PrivacyModule -->
<g id="edge3" class="edge">
<title>PrivacyRouting&#45;&gt;PrivacyModule</title>
<path fill="none" stroke="black" d="M186,-84.91C186,-84.91 186,-103.79 186,-103.79"/>
<polygon fill="black" stroke="black" points="182.5,-103.79 186,-113.79 189.5,-103.79 182.5,-103.79"/>
</g>
</g>
</svg>
